M48
; DRILL file {KiCad 5.1.5+dfsg1-2build2} date Thu 10 Sep 2020 11:56:56 PM EDT
; FORMAT={-:-/ absolute / inch / decimal}
; #@! TF.CreationDate,2020-09-10T23:56:56-04:00
; #@! TF.GenerationSoftware,Kicad,Pcbnew,5.1.5+dfsg1-2build2
; #@! TF.FileFunction,Plated,1,2,PTH
FMAT,2
INCH
T1C0.0138
T2C0.0400
%
G90
G05
T1
X1.5222Y-2.3672
X1.5222Y-4.2333
X1.5222Y-6.0995
X1.5222Y-7.9656
X1.5469Y-2.3929
X1.5469Y-4.259
X1.5469Y-6.1252
X1.5469Y-7.9913
X1.5652Y-2.1097
X1.5652Y-3.9758
X1.5652Y-5.8419
X1.5652Y-7.7081
X1.5677Y-2.4197
X1.5677Y-4.2858
X1.5677Y-6.1519
X1.5677Y-8.0181
X1.5777Y-1.9847
X1.5777Y-3.8508
X1.5777Y-5.7169
X1.5777Y-7.5831
X1.6152Y-2.3347
X1.6152Y-4.2008
X1.6152Y-6.0669
X1.6152Y-7.9331
X1.6727Y-2.6047
X1.6727Y-2.6447
X1.6727Y-4.4708
X1.6727Y-4.5108
X1.6727Y-6.3369
X1.6727Y-6.3769
X1.6727Y-8.2031
X1.6727Y-8.2431
X1.6777Y-1.5847
X1.6777Y-3.4508
X1.6777Y-5.3169
X1.6777Y-7.1831
X1.6906Y-2.4147
X1.6906Y-4.2808
X1.6906Y-6.1469
X1.6906Y-8.0131
X1.7027Y-2.2847
X1.7027Y-4.1508
X1.7027Y-6.0169
X1.7027Y-7.8831
X1.7299Y-2.4147
X1.7299Y-4.2808
X1.7299Y-6.1469
X1.7299Y-8.0131
X1.7377Y-2.1347
X1.7377Y-4.0008
X1.7377Y-5.8669
X1.7377Y-7.7331
X1.7693Y-2.4147
X1.7693Y-4.2808
X1.7693Y-6.1469
X1.7693Y-8.0131
X1.8055Y-2.2797
X1.8055Y-4.1458
X1.8055Y-6.0119
X1.8055Y-7.8781
X1.8087Y-2.4147
X1.8087Y-4.2808
X1.8087Y-6.1469
X1.8087Y-8.0131
X1.8277Y-1.4597
X1.8277Y-3.3258
X1.8277Y-5.1919
X1.8277Y-7.0581
X1.8477Y-2.5397
X1.8477Y-4.4058
X1.8477Y-6.2719
X1.8477Y-8.1381
X1.9077Y-1.9547
X1.9077Y-3.8208
X1.9077Y-5.6869
X1.9077Y-7.5531
X1.9177Y-2.1047
X1.9177Y-3.9708
X1.9177Y-5.8369
X1.9177Y-7.7031
X1.9269Y-2.3997
X1.9269Y-4.2658
X1.9269Y-6.1319
X1.9269Y-7.9981
X1.9277Y-1.5847
X1.9277Y-1.7597
X1.9277Y-1.8097
X1.9277Y-3.4508
X1.9277Y-3.6258
X1.9277Y-3.6758
X1.9277Y-5.3169
X1.9277Y-5.4919
X1.9277Y-5.5419
X1.9277Y-7.1831
X1.9277Y-7.3581
X1.9277Y-7.4081
X1.9327Y-2.6047
X1.9327Y-4.4708
X1.9327Y-6.3369
X1.9327Y-8.2031
X1.9477Y-1.9597
X1.9477Y-3.8258
X1.9477Y-5.6919
X1.9477Y-7.5581
X1.9627Y-2.2097
X1.9627Y-4.0758
X1.9627Y-5.9419
X1.9627Y-7.8081
X1.9677Y-2.6047
X1.9677Y-4.4708
X1.9677Y-6.3369
X1.9677Y-8.2031
X1.9827Y-2.3997
X1.9827Y-4.2658
X1.9827Y-6.1319
X1.9827Y-7.9981
X1.9877Y-1.9597
X1.9877Y-3.8258
X1.9877Y-5.6919
X1.9877Y-7.5581
X2.0027Y-2.2237
X2.0027Y-2.6047
X2.0027Y-4.0898
X2.0027Y-4.4708
X2.0027Y-5.9559
X2.0027Y-6.3369
X2.0027Y-7.8221
X2.0027Y-8.2031
X2.0177Y-2.0297
X2.0177Y-2.0697
X2.0177Y-2.1797
X2.0177Y-2.2547
X2.0177Y-3.8958
X2.0177Y-3.9358
X2.0177Y-4.0458
X2.0177Y-4.1208
X2.0177Y-5.7619
X2.0177Y-5.8019
X2.0177Y-5.9119
X2.0177Y-5.9869
X2.0177Y-7.6281
X2.0177Y-7.6681
X2.0177Y-7.7781
X2.0177Y-7.8531
X2.0254Y-2.3997
X2.0254Y-4.2658
X2.0254Y-6.1319
X2.0254Y-7.9981
X2.0277Y-1.9947
X2.0277Y-3.8608
X2.0277Y-5.7269
X2.0277Y-7.5931
X2.0336Y-2.0988
X2.0336Y-3.9649
X2.0336Y-5.8311
X2.0336Y-7.6972
X2.0427Y-2.2197
X2.0427Y-4.0858
X2.0427Y-5.9519
X2.0427Y-7.8181
X2.0627Y-2.6047
X2.0627Y-2.6447
X2.0627Y-4.4708
X2.0627Y-4.5108
X2.0627Y-6.3369
X2.0627Y-6.3769
X2.0627Y-8.2031
X2.0627Y-8.2431
X2.0677Y-2.3197
X2.0677Y-4.1858
X2.0677Y-6.0519
X2.0677Y-7.9181
X2.0927Y-2.4397
X2.0927Y-2.4697
X2.0927Y-2.4997
X2.0927Y-4.3058
X2.0927Y-4.3358
X2.0927Y-4.3658
X2.0927Y-6.1719
X2.0927Y-6.2019
X2.0927Y-6.2319
X2.0927Y-8.0381
X2.0927Y-8.0681
X2.0927Y-8.0981
X2.1127Y-2.2997
X2.1127Y-4.1658
X2.1127Y-6.0319
X2.1127Y-7.8981
X2.2327Y-2.1597
X2.2327Y-4.0258
X2.2327Y-5.8919
X2.2327Y-7.7581
X2.2368Y-2.2297
X2.2368Y-4.0958
X2.2368Y-5.9619
X2.2368Y-7.8281
X2.2379Y-2.1914
X2.2379Y-4.0576
X2.2379Y-5.9237
X2.2379Y-7.7899
X2.2777Y-2.2797
X2.2777Y-4.1458
X2.2777Y-6.0119
X2.2777Y-7.8781
X2.3027Y-1.3697
X2.3027Y-1.7597
X2.3027Y-3.2358
X2.3027Y-3.6258
X2.3027Y-5.1019
X2.3027Y-5.4919
X2.3027Y-6.9681
X2.3027Y-7.3581
X2.3077Y-1.9647
X2.3077Y-3.8308
X2.3077Y-5.6969
X2.3077Y-7.5631
X2.3277Y-1.9347
X2.3277Y-3.8008
X2.3277Y-5.6669
X2.3277Y-7.5331
X2.3627Y-2.1447
X2.3627Y-4.0108
X2.3627Y-5.8769
X2.3627Y-7.7431
X2.3652Y-2.3265
X2.3652Y-4.1927
X2.3652Y-6.0588
X2.3652Y-7.925
X2.4047Y-2.2547
X2.4047Y-4.1208
X2.4047Y-5.9869
X2.4047Y-7.8531
X2.4927Y-1.7997
X2.4927Y-3.6658
X2.4927Y-5.5319
X2.4927Y-7.3981
X2.4947Y-2.1447
X2.4947Y-4.0108
X2.4947Y-5.8769
X2.4947Y-7.7431
X2.5027Y-1.4797
X2.5027Y-2.3222
X2.5027Y-3.3458
X2.5027Y-4.1883
X2.5027Y-5.2119
X2.5027Y-6.0544
X2.5027Y-7.0781
X2.5027Y-7.9206
X2.5477Y-2.2147
X2.5477Y-4.0808
X2.5477Y-5.9469
X2.5477Y-7.8131
X2.6247Y-2.1447
X2.6247Y-4.0108
X2.6247Y-5.8769
X2.6247Y-7.7431
X2.6274Y-2.294
X2.6274Y-4.1602
X2.6274Y-6.0263
X2.6274Y-7.8925
X2.6777Y-2.2247
X2.6777Y-4.0908
X2.6777Y-5.9569
X2.6777Y-7.8231
X2.7177Y-2.2347
X2.7177Y-4.1008
X2.7177Y-5.9669
X2.7177Y-7.8331
X2.7527Y-2.2197
X2.7527Y-4.0858
X2.7527Y-5.9519
X2.7527Y-7.8181
X3.5064Y-2.3672
X3.5064Y-4.2333
X3.5064Y-6.0995
X3.5064Y-7.9656
X3.5312Y-2.3929
X3.5312Y-4.259
X3.5312Y-6.1252
X3.5312Y-7.9913
X3.5495Y-2.1097
X3.5495Y-3.9758
X3.5495Y-5.8419
X3.5495Y-7.7081
X3.552Y-2.4197
X3.552Y-4.2858
X3.552Y-6.1519
X3.552Y-8.0181
X3.562Y-1.9847
X3.562Y-3.8508
X3.562Y-5.7169
X3.562Y-7.5831
X3.5995Y-2.3347
X3.5995Y-4.2008
X3.5995Y-6.0669
X3.5995Y-7.9331
X3.657Y-2.6047
X3.657Y-2.6447
X3.657Y-4.4708
X3.657Y-4.5108
X3.657Y-6.3369
X3.657Y-6.3769
X3.657Y-8.2031
X3.657Y-8.2431
X3.662Y-1.5847
X3.662Y-3.4508
X3.662Y-5.3169
X3.662Y-7.1831
X3.6748Y-2.4147
X3.6748Y-4.2808
X3.6748Y-6.1469
X3.6748Y-8.0131
X3.687Y-2.2847
X3.687Y-4.1508
X3.687Y-6.0169
X3.687Y-7.8831
X3.7142Y-2.4147
X3.7142Y-4.2808
X3.7142Y-6.1469
X3.7142Y-8.0131
X3.722Y-2.1347
X3.722Y-4.0008
X3.722Y-5.8669
X3.722Y-7.7331
X3.7536Y-2.4147
X3.7536Y-4.2808
X3.7536Y-6.1469
X3.7536Y-8.0131
X3.7898Y-2.2797
X3.7898Y-4.1458
X3.7898Y-6.0119
X3.7898Y-7.8781
X3.7929Y-2.4147
X3.7929Y-4.2808
X3.7929Y-6.1469
X3.7929Y-8.0131
X3.812Y-1.4597
X3.812Y-3.3258
X3.812Y-5.1919
X3.812Y-7.0581
X3.832Y-2.5397
X3.832Y-4.4058
X3.832Y-6.2719
X3.832Y-8.1381
X3.892Y-1.9547
X3.892Y-3.8208
X3.892Y-5.6869
X3.892Y-7.5531
X3.902Y-2.1047
X3.902Y-3.9708
X3.902Y-5.8369
X3.902Y-7.7031
X3.9112Y-2.3997
X3.9112Y-4.2658
X3.9112Y-6.1319
X3.9112Y-7.9981
X3.912Y-1.5847
X3.912Y-1.7597
X3.912Y-1.8097
X3.912Y-3.4508
X3.912Y-3.6258
X3.912Y-3.6758
X3.912Y-5.3169
X3.912Y-5.4919
X3.912Y-5.5419
X3.912Y-7.1831
X3.912Y-7.3581
X3.912Y-7.4081
X3.917Y-2.6047
X3.917Y-4.4708
X3.917Y-6.3369
X3.917Y-8.2031
X3.932Y-1.9597
X3.932Y-3.8258
X3.932Y-5.6919
X3.932Y-7.5581
X3.947Y-2.2097
X3.947Y-4.0758
X3.947Y-5.9419
X3.947Y-7.8081
X3.952Y-2.6047
X3.952Y-4.4708
X3.952Y-6.3369
X3.952Y-8.2031
X3.967Y-2.3997
X3.967Y-4.2658
X3.967Y-6.1319
X3.967Y-7.9981
X3.972Y-1.9597
X3.972Y-3.8258
X3.972Y-5.6919
X3.972Y-7.5581
X3.987Y-2.2237
X3.987Y-2.6047
X3.987Y-4.0898
X3.987Y-4.4708
X3.987Y-5.9559
X3.987Y-6.3369
X3.987Y-7.8221
X3.987Y-8.2031
X4.002Y-2.0297
X4.002Y-2.0697
X4.002Y-2.1797
X4.002Y-2.2547
X4.002Y-3.8958
X4.002Y-3.9358
X4.002Y-4.0458
X4.002Y-4.1208
X4.002Y-5.7619
X4.002Y-5.8019
X4.002Y-5.9119
X4.002Y-5.9869
X4.002Y-7.6281
X4.002Y-7.6681
X4.002Y-7.7781
X4.002Y-7.8531
X4.0096Y-2.3997
X4.0096Y-4.2658
X4.0096Y-6.1319
X4.0096Y-7.9981
X4.012Y-1.9947
X4.012Y-3.8608
X4.012Y-5.7269
X4.012Y-7.5931
X4.0178Y-2.0988
X4.0178Y-3.9649
X4.0178Y-5.8311
X4.0178Y-7.6972
X4.027Y-2.2197
X4.027Y-4.0858
X4.027Y-5.9519
X4.027Y-7.8181
X4.047Y-2.6047
X4.047Y-2.6447
X4.047Y-4.4708
X4.047Y-4.5108
X4.047Y-6.3369
X4.047Y-6.3769
X4.047Y-8.2031
X4.047Y-8.2431
X4.052Y-2.3197
X4.052Y-4.1858
X4.052Y-6.0519
X4.052Y-7.9181
X4.077Y-2.4397
X4.077Y-2.4697
X4.077Y-2.4997
X4.077Y-4.3058
X4.077Y-4.3358
X4.077Y-4.3658
X4.077Y-6.1719
X4.077Y-6.2019
X4.077Y-6.2319
X4.077Y-8.0381
X4.077Y-8.0681
X4.077Y-8.0981
X4.097Y-2.2997
X4.097Y-4.1658
X4.097Y-6.0319
X4.097Y-7.8981
X4.217Y-2.1597
X4.217Y-4.0258
X4.217Y-5.8919
X4.217Y-7.7581
X4.221Y-2.2297
X4.221Y-4.0958
X4.221Y-5.9619
X4.221Y-7.8281
X4.2221Y-2.1914
X4.2221Y-4.0576
X4.2221Y-5.9237
X4.2221Y-7.7899
X4.262Y-2.2797
X4.262Y-4.1458
X4.262Y-6.0119
X4.262Y-7.8781
X4.287Y-1.3697
X4.287Y-1.7597
X4.287Y-3.2358
X4.287Y-3.6258
X4.287Y-5.1019
X4.287Y-5.4919
X4.287Y-6.9681
X4.287Y-7.3581
X4.292Y-1.9647
X4.292Y-3.8308
X4.292Y-5.6969
X4.292Y-7.5631
X4.312Y-1.9347
X4.312Y-3.8008
X4.312Y-5.6669
X4.312Y-7.5331
X4.347Y-2.1447
X4.347Y-4.0108
X4.347Y-5.8769
X4.347Y-7.7431
X4.3495Y-2.3265
X4.3495Y-4.1927
X4.3495Y-6.0588
X4.3495Y-7.925
X4.3889Y-2.2547
X4.3889Y-4.1208
X4.3889Y-5.9869
X4.3889Y-7.8531
X4.477Y-1.7997
X4.477Y-3.6658
X4.477Y-5.5319
X4.477Y-7.3981
X4.479Y-2.1447
X4.479Y-4.0108
X4.479Y-5.8769
X4.479Y-7.7431
X4.487Y-1.4797
X4.487Y-2.3222
X4.487Y-3.3458
X4.487Y-4.1883
X4.487Y-5.2119
X4.487Y-6.0544
X4.487Y-7.0781
X4.487Y-7.9206
X4.532Y-2.2147
X4.532Y-4.0808
X4.532Y-5.9469
X4.532Y-7.8131
X4.609Y-2.1447
X4.609Y-4.0108
X4.609Y-5.8769
X4.609Y-7.7431
X4.6116Y-2.294
X4.6116Y-4.1602
X4.6116Y-6.0263
X4.6116Y-7.8925
X4.662Y-2.2247
X4.662Y-4.0908
X4.662Y-5.9569
X4.662Y-7.8231
X4.702Y-2.2347
X4.702Y-4.1008
X4.702Y-5.9669
X4.702Y-7.8331
X4.737Y-2.2197
X4.737Y-4.0858
X4.737Y-5.9519
X4.737Y-7.8181
X5.4907Y-2.3672
X5.4907Y-4.2333
X5.4907Y-6.0995
X5.4907Y-7.9656
X5.5154Y-2.3929
X5.5154Y-4.259
X5.5154Y-6.1252
X5.5154Y-7.9913
X5.5337Y-2.1097
X5.5337Y-3.9758
X5.5337Y-5.8419
X5.5337Y-7.7081
X5.5362Y-2.4197
X5.5362Y-4.2858
X5.5362Y-6.1519
X5.5362Y-8.0181
X5.5462Y-1.9847
X5.5462Y-3.8508
X5.5462Y-5.7169
X5.5462Y-7.5831
X5.5837Y-2.3347
X5.5837Y-4.2008
X5.5837Y-6.0669
X5.5837Y-7.9331
X5.6412Y-2.6047
X5.6412Y-2.6447
X5.6412Y-4.4708
X5.6412Y-4.5108
X5.6412Y-6.3369
X5.6412Y-6.3769
X5.6412Y-8.2031
X5.6412Y-8.2431
X5.6462Y-1.5847
X5.6462Y-3.4508
X5.6462Y-5.3169
X5.6462Y-7.1831
X5.6591Y-2.4147
X5.6591Y-4.2808
X5.6591Y-6.1469
X5.6591Y-8.0131
X5.6712Y-2.2847
X5.6712Y-4.1508
X5.6712Y-6.0169
X5.6712Y-7.8831
X5.6984Y-2.4147
X5.6984Y-4.2808
X5.6984Y-6.1469
X5.6984Y-8.0131
X5.7062Y-2.1347
X5.7062Y-4.0008
X5.7062Y-5.8669
X5.7062Y-7.7331
X5.7378Y-2.4147
X5.7378Y-4.2808
X5.7378Y-6.1469
X5.7378Y-8.0131
X5.774Y-2.2797
X5.774Y-4.1458
X5.774Y-6.0119
X5.774Y-7.8781
X5.7772Y-2.4147
X5.7772Y-4.2808
X5.7772Y-6.1469
X5.7772Y-8.0131
X5.7962Y-1.4597
X5.7962Y-3.3258
X5.7962Y-5.1919
X5.7962Y-7.0581
X5.8162Y-2.5397
X5.8162Y-4.4058
X5.8162Y-6.2719
X5.8162Y-8.1381
X5.8762Y-1.9547
X5.8762Y-3.8208
X5.8762Y-5.6869
X5.8762Y-7.5531
X5.8862Y-2.1047
X5.8862Y-3.9708
X5.8862Y-5.8369
X5.8862Y-7.7031
X5.8954Y-2.3997
X5.8954Y-4.2658
X5.8954Y-6.1319
X5.8954Y-7.9981
X5.8962Y-1.5847
X5.8962Y-1.7597
X5.8962Y-1.8097
X5.8962Y-3.4508
X5.8962Y-3.6258
X5.8962Y-3.6758
X5.8962Y-5.3169
X5.8962Y-5.4919
X5.8962Y-5.5419
X5.8962Y-7.1831
X5.8962Y-7.3581
X5.8962Y-7.4081
X5.9012Y-2.6047
X5.9012Y-4.4708
X5.9012Y-6.3369
X5.9012Y-8.2031
X5.9162Y-1.9597
X5.9162Y-3.8258
X5.9162Y-5.6919
X5.9162Y-7.5581
X5.9312Y-2.2097
X5.9312Y-4.0758
X5.9312Y-5.9419
X5.9312Y-7.8081
X5.9362Y-2.6047
X5.9362Y-4.4708
X5.9362Y-6.3369
X5.9362Y-8.2031
X5.9512Y-2.3997
X5.9512Y-4.2658
X5.9512Y-6.1319
X5.9512Y-7.9981
X5.9562Y-1.9597
X5.9562Y-3.8258
X5.9562Y-5.6919
X5.9562Y-7.5581
X5.9712Y-2.2237
X5.9712Y-2.6047
X5.9712Y-4.0898
X5.9712Y-4.4708
X5.9712Y-5.9559
X5.9712Y-6.3369
X5.9712Y-7.8221
X5.9712Y-8.2031
X5.9862Y-2.0297
X5.9862Y-2.0697
X5.9862Y-2.1797
X5.9862Y-2.2547
X5.9862Y-3.8958
X5.9862Y-3.9358
X5.9862Y-4.0458
X5.9862Y-4.1208
X5.9862Y-5.7619
X5.9862Y-5.8019
X5.9862Y-5.9119
X5.9862Y-5.9869
X5.9862Y-7.6281
X5.9862Y-7.6681
X5.9862Y-7.7781
X5.9862Y-7.8531
X5.9939Y-2.3997
X5.9939Y-4.2658
X5.9939Y-6.1319
X5.9939Y-7.9981
X5.9962Y-1.9947
X5.9962Y-3.8608
X5.9962Y-5.7269
X5.9962Y-7.5931
X6.0021Y-2.0988
X6.0021Y-3.9649
X6.0021Y-5.8311
X6.0021Y-7.6972
X6.0112Y-2.2197
X6.0112Y-4.0858
X6.0112Y-5.9519
X6.0112Y-7.8181
X6.0312Y-2.6047
X6.0312Y-2.6447
X6.0312Y-4.4708
X6.0312Y-4.5108
X6.0312Y-6.3369
X6.0312Y-6.3769
X6.0312Y-8.2031
X6.0312Y-8.2431
X6.0362Y-2.3197
X6.0362Y-4.1858
X6.0362Y-6.0519
X6.0362Y-7.9181
X6.0612Y-2.4397
X6.0612Y-2.4697
X6.0612Y-2.4997
X6.0612Y-4.3058
X6.0612Y-4.3358
X6.0612Y-4.3658
X6.0612Y-6.1719
X6.0612Y-6.2019
X6.0612Y-6.2319
X6.0612Y-8.0381
X6.0612Y-8.0681
X6.0612Y-8.0981
X6.0812Y-2.2997
X6.0812Y-4.1658
X6.0812Y-6.0319
X6.0812Y-7.8981
X6.2012Y-2.1597
X6.2012Y-4.0258
X6.2012Y-5.8919
X6.2012Y-7.7581
X6.2053Y-2.2297
X6.2053Y-4.0958
X6.2053Y-5.9619
X6.2053Y-7.8281
X6.2064Y-2.1914
X6.2064Y-4.0576
X6.2064Y-5.9237
X6.2064Y-7.7899
X6.2462Y-2.2797
X6.2462Y-4.1458
X6.2462Y-6.0119
X6.2462Y-7.8781
X6.2712Y-1.3697
X6.2712Y-1.7597
X6.2712Y-3.2358
X6.2712Y-3.6258
X6.2712Y-5.1019
X6.2712Y-5.4919
X6.2712Y-6.9681
X6.2712Y-7.3581
X6.2762Y-1.9647
X6.2762Y-3.8308
X6.2762Y-5.6969
X6.2762Y-7.5631
X6.2962Y-1.9347
X6.2962Y-3.8008
X6.2962Y-5.6669
X6.2962Y-7.5331
X6.3312Y-2.1447
X6.3312Y-4.0108
X6.3312Y-5.8769
X6.3312Y-7.7431
X6.3337Y-2.3265
X6.3337Y-4.1927
X6.3337Y-6.0588
X6.3337Y-7.925
X6.3732Y-2.2547
X6.3732Y-4.1208
X6.3732Y-5.9869
X6.3732Y-7.8531
X6.4612Y-1.7997
X6.4612Y-3.6658
X6.4612Y-5.5319
X6.4612Y-7.3981
X6.4632Y-2.1447
X6.4632Y-4.0108
X6.4632Y-5.8769
X6.4632Y-7.7431
X6.4712Y-1.4797
X6.4712Y-2.3222
X6.4712Y-3.3458
X6.4712Y-4.1883
X6.4712Y-5.2119
X6.4712Y-6.0544
X6.4712Y-7.0781
X6.4712Y-7.9206
X6.5162Y-2.2147
X6.5162Y-4.0808
X6.5162Y-5.9469
X6.5162Y-7.8131
X6.5932Y-2.1447
X6.5932Y-4.0108
X6.5932Y-5.8769
X6.5932Y-7.7431
X6.5959Y-2.294
X6.5959Y-4.1602
X6.5959Y-6.0263
X6.5959Y-7.8925
X6.6462Y-2.2247
X6.6462Y-4.0908
X6.6462Y-5.9569
X6.6462Y-7.8231
X6.6862Y-2.2347
X6.6862Y-4.1008
X6.6862Y-5.9669
X6.6862Y-7.8331
X6.7212Y-2.2197
X6.7212Y-4.0858
X6.7212Y-5.9519
X6.7212Y-7.8181
X7.4749Y-2.3672
X7.4749Y-4.2333
X7.4749Y-6.0995
X7.4749Y-7.9656
X7.4997Y-2.3929
X7.4997Y-4.259
X7.4997Y-6.1252
X7.4997Y-7.9913
X7.518Y-2.1097
X7.518Y-3.9758
X7.518Y-5.8419
X7.518Y-7.7081
X7.5205Y-2.4197
X7.5205Y-4.2858
X7.5205Y-6.1519
X7.5205Y-8.0181
X7.5305Y-1.9847
X7.5305Y-3.8508
X7.5305Y-5.7169
X7.5305Y-7.5831
X7.568Y-2.3347
X7.568Y-4.2008
X7.568Y-6.0669
X7.568Y-7.9331
X7.6255Y-2.6047
X7.6255Y-2.6447
X7.6255Y-4.4708
X7.6255Y-4.5108
X7.6255Y-6.3369
X7.6255Y-6.3769
X7.6255Y-8.2031
X7.6255Y-8.2431
X7.6305Y-1.5847
X7.6305Y-3.4508
X7.6305Y-5.3169
X7.6305Y-7.1831
X7.6433Y-2.4147
X7.6433Y-4.2808
X7.6433Y-6.1469
X7.6433Y-8.0131
X7.6555Y-2.2847
X7.6555Y-4.1508
X7.6555Y-6.0169
X7.6555Y-7.8831
X7.6827Y-2.4147
X7.6827Y-4.2808
X7.6827Y-6.1469
X7.6827Y-8.0131
X7.6905Y-2.1347
X7.6905Y-4.0008
X7.6905Y-5.8669
X7.6905Y-7.7331
X7.7221Y-2.4147
X7.7221Y-4.2808
X7.7221Y-6.1469
X7.7221Y-8.0131
X7.7583Y-2.2797
X7.7583Y-4.1458
X7.7583Y-6.0119
X7.7583Y-7.8781
X7.7614Y-2.4147
X7.7614Y-4.2808
X7.7614Y-6.1469
X7.7614Y-8.0131
X7.7805Y-1.4597
X7.7805Y-3.3258
X7.7805Y-5.1919
X7.7805Y-7.0581
X7.8005Y-2.5397
X7.8005Y-4.4058
X7.8005Y-6.2719
X7.8005Y-8.1381
X7.8605Y-1.9547
X7.8605Y-3.8208
X7.8605Y-5.6869
X7.8605Y-7.5531
X7.8705Y-2.1047
X7.8705Y-3.9708
X7.8705Y-5.8369
X7.8705Y-7.7031
X7.8797Y-2.3997
X7.8797Y-4.2658
X7.8797Y-6.1319
X7.8797Y-7.9981
X7.8805Y-1.5847
X7.8805Y-1.7597
X7.8805Y-1.8097
X7.8805Y-3.4508
X7.8805Y-3.6258
X7.8805Y-3.6758
X7.8805Y-5.3169
X7.8805Y-5.4919
X7.8805Y-5.5419
X7.8805Y-7.1831
X7.8805Y-7.3581
X7.8805Y-7.4081
X7.8855Y-2.6047
X7.8855Y-4.4708
X7.8855Y-6.3369
X7.8855Y-8.2031
X7.9005Y-1.9597
X7.9005Y-3.8258
X7.9005Y-5.6919
X7.9005Y-7.5581
X7.9155Y-2.2097
X7.9155Y-4.0758
X7.9155Y-5.9419
X7.9155Y-7.8081
X7.9205Y-2.6047
X7.9205Y-4.4708
X7.9205Y-6.3369
X7.9205Y-8.2031
X7.9355Y-2.3997
X7.9355Y-4.2658
X7.9355Y-6.1319
X7.9355Y-7.9981
X7.9405Y-1.9597
X7.9405Y-3.8258
X7.9405Y-5.6919
X7.9405Y-7.5581
X7.9555Y-2.2237
X7.9555Y-2.6047
X7.9555Y-4.0898
X7.9555Y-4.4708
X7.9555Y-5.9559
X7.9555Y-6.3369
X7.9555Y-7.8221
X7.9555Y-8.2031
X7.9705Y-2.0297
X7.9705Y-2.0697
X7.9705Y-2.1797
X7.9705Y-2.2547
X7.9705Y-3.8958
X7.9705Y-3.9358
X7.9705Y-4.0458
X7.9705Y-4.1208
X7.9705Y-5.7619
X7.9705Y-5.8019
X7.9705Y-5.9119
X7.9705Y-5.9869
X7.9705Y-7.6281
X7.9705Y-7.6681
X7.9705Y-7.7781
X7.9705Y-7.8531
X7.9781Y-2.3997
X7.9781Y-4.2658
X7.9781Y-6.1319
X7.9781Y-7.9981
X7.9805Y-1.9947
X7.9805Y-3.8608
X7.9805Y-5.7269
X7.9805Y-7.5931
X7.9863Y-2.0988
X7.9863Y-3.9649
X7.9863Y-5.8311
X7.9863Y-7.6972
X7.9955Y-2.2197
X7.9955Y-4.0858
X7.9955Y-5.9519
X7.9955Y-7.8181
X8.0155Y-2.6047
X8.0155Y-2.6447
X8.0155Y-4.4708
X8.0155Y-4.5108
X8.0155Y-6.3369
X8.0155Y-6.3769
X8.0155Y-8.2031
X8.0155Y-8.2431
X8.0205Y-2.3197
X8.0205Y-4.1858
X8.0205Y-6.0519
X8.0205Y-7.9181
X8.0455Y-2.4397
X8.0455Y-2.4697
X8.0455Y-2.4997
X8.0455Y-4.3058
X8.0455Y-4.3358
X8.0455Y-4.3658
X8.0455Y-6.1719
X8.0455Y-6.2019
X8.0455Y-6.2319
X8.0455Y-8.0381
X8.0455Y-8.0681
X8.0455Y-8.0981
X8.0655Y-2.2997
X8.0655Y-4.1658
X8.0655Y-6.0319
X8.0655Y-7.8981
X8.1855Y-2.1597
X8.1855Y-4.0258
X8.1855Y-5.8919
X8.1855Y-7.7581
X8.1895Y-2.2297
X8.1895Y-4.0958
X8.1895Y-5.9619
X8.1895Y-7.8281
X8.1907Y-2.1914
X8.1907Y-4.0576
X8.1907Y-5.9237
X8.1907Y-7.7899
X8.2305Y-2.2797
X8.2305Y-4.1458
X8.2305Y-6.0119
X8.2305Y-7.8781
X8.2555Y-1.3697
X8.2555Y-1.7597
X8.2555Y-3.2358
X8.2555Y-3.6258
X8.2555Y-5.1019
X8.2555Y-5.4919
X8.2555Y-6.9681
X8.2555Y-7.3581
X8.2605Y-1.9647
X8.2605Y-3.8308
X8.2605Y-5.6969
X8.2605Y-7.5631
X8.2805Y-1.9347
X8.2805Y-3.8008
X8.2805Y-5.6669
X8.2805Y-7.5331
X8.3155Y-2.1447
X8.3155Y-4.0108
X8.3155Y-5.8769
X8.3155Y-7.7431
X8.318Y-2.3265
X8.318Y-4.1927
X8.318Y-6.0588
X8.318Y-7.925
X8.3574Y-2.2547
X8.3574Y-4.1208
X8.3574Y-5.9869
X8.3574Y-7.8531
X8.4455Y-1.7997
X8.4455Y-3.6658
X8.4455Y-5.5319
X8.4455Y-7.3981
X8.4475Y-2.1447
X8.4475Y-4.0108
X8.4475Y-5.8769
X8.4475Y-7.7431
X8.4555Y-1.4797
X8.4555Y-2.3222
X8.4555Y-3.3458
X8.4555Y-4.1883
X8.4555Y-5.2119
X8.4555Y-6.0544
X8.4555Y-7.0781
X8.4555Y-7.9206
X8.5005Y-2.2147
X8.5005Y-4.0808
X8.5005Y-5.9469
X8.5005Y-7.8131
X8.5775Y-2.1447
X8.5775Y-4.0108
X8.5775Y-5.8769
X8.5775Y-7.7431
X8.5801Y-2.294
X8.5801Y-4.1602
X8.5801Y-6.0263
X8.5801Y-7.8925
X8.6305Y-2.2247
X8.6305Y-4.0908
X8.6305Y-5.9569
X8.6305Y-7.8231
X8.6705Y-2.2347
X8.6705Y-4.1008
X8.6705Y-5.9669
X8.6705Y-7.8331
X8.7055Y-2.2197
X8.7055Y-4.0858
X8.7055Y-5.9519
X8.7055Y-7.8181
X9.4592Y-2.3672
X9.4592Y-4.2333
X9.4592Y-6.0995
X9.4592Y-7.9656
X9.4839Y-2.3929
X9.4839Y-4.259
X9.4839Y-6.1252
X9.4839Y-7.9913
X9.5022Y-2.1097
X9.5022Y-3.9758
X9.5022Y-5.8419
X9.5022Y-7.7081
X9.5047Y-2.4197
X9.5047Y-4.2858
X9.5047Y-6.1519
X9.5047Y-8.0181
X9.5147Y-1.9847
X9.5147Y-3.8508
X9.5147Y-5.7169
X9.5147Y-7.5831
X9.5522Y-2.3347
X9.5522Y-4.2008
X9.5522Y-6.0669
X9.5522Y-7.9331
X9.6097Y-2.6047
X9.6097Y-2.6447
X9.6097Y-4.4708
X9.6097Y-4.5108
X9.6097Y-6.3369
X9.6097Y-6.3769
X9.6097Y-8.2031
X9.6097Y-8.2431
X9.6147Y-1.5847
X9.6147Y-3.4508
X9.6147Y-5.3169
X9.6147Y-7.1831
X9.6276Y-2.4147
X9.6276Y-4.2808
X9.6276Y-6.1469
X9.6276Y-8.0131
X9.6397Y-2.2847
X9.6397Y-4.1508
X9.6397Y-6.0169
X9.6397Y-7.8831
X9.6669Y-2.4147
X9.6669Y-4.2808
X9.6669Y-6.1469
X9.6669Y-8.0131
X9.6747Y-2.1347
X9.6747Y-4.0008
X9.6747Y-5.8669
X9.6747Y-7.7331
X9.7063Y-2.4147
X9.7063Y-4.2808
X9.7063Y-6.1469
X9.7063Y-8.0131
X9.7425Y-2.2797
X9.7425Y-4.1458
X9.7425Y-6.0119
X9.7425Y-7.8781
X9.7457Y-2.4147
X9.7457Y-4.2808
X9.7457Y-6.1469
X9.7457Y-8.0131
X9.7647Y-1.4597
X9.7647Y-3.3258
X9.7647Y-5.1919
X9.7647Y-7.0581
X9.7847Y-2.5397
X9.7847Y-4.4058
X9.7847Y-6.2719
X9.7847Y-8.1381
X9.8447Y-1.9547
X9.8447Y-3.8208
X9.8447Y-5.6869
X9.8447Y-7.5531
X9.8547Y-2.1047
X9.8547Y-3.9708
X9.8547Y-5.8369
X9.8547Y-7.7031
X9.8639Y-2.3997
X9.8639Y-4.2658
X9.8639Y-6.1319
X9.8639Y-7.9981
X9.8647Y-1.5847
X9.8647Y-1.7597
X9.8647Y-1.8097
X9.8647Y-3.4508
X9.8647Y-3.6258
X9.8647Y-3.6758
X9.8647Y-5.3169
X9.8647Y-5.4919
X9.8647Y-5.5419
X9.8647Y-7.1831
X9.8647Y-7.3581
X9.8647Y-7.4081
X9.8697Y-2.6047
X9.8697Y-4.4708
X9.8697Y-6.3369
X9.8697Y-8.2031
X9.8847Y-1.9597
X9.8847Y-3.8258
X9.8847Y-5.6919
X9.8847Y-7.5581
X9.8997Y-2.2097
X9.8997Y-4.0758
X9.8997Y-5.9419
X9.8997Y-7.8081
X9.9047Y-2.6047
X9.9047Y-4.4708
X9.9047Y-6.3369
X9.9047Y-8.2031
X9.9197Y-2.3997
X9.9197Y-4.2658
X9.9197Y-6.1319
X9.9197Y-7.9981
X9.9247Y-1.9597
X9.9247Y-3.8258
X9.9247Y-5.6919
X9.9247Y-7.5581
X9.9397Y-2.2237
X9.9397Y-2.6047
X9.9397Y-4.0898
X9.9397Y-4.4708
X9.9397Y-5.9559
X9.9397Y-6.3369
X9.9397Y-7.8221
X9.9397Y-8.2031
X9.9547Y-2.0297
X9.9547Y-2.0697
X9.9547Y-2.1797
X9.9547Y-2.2547
X9.9547Y-3.8958
X9.9547Y-3.9358
X9.9547Y-4.0458
X9.9547Y-4.1208
X9.9547Y-5.7619
X9.9547Y-5.8019
X9.9547Y-5.9119
X9.9547Y-5.9869
X9.9547Y-7.6281
X9.9547Y-7.6681
X9.9547Y-7.7781
X9.9547Y-7.8531
X9.9624Y-2.3997
X9.9624Y-4.2658
X9.9624Y-6.1319
X9.9624Y-7.9981
X9.9647Y-1.9947
X9.9647Y-3.8608
X9.9647Y-5.7269
X9.9647Y-7.5931
X9.9706Y-2.0988
X9.9706Y-3.9649
X9.9706Y-5.8311
X9.9706Y-7.6972
X9.9797Y-2.2197
X9.9797Y-4.0858
X9.9797Y-5.9519
X9.9797Y-7.8181
X9.9997Y-2.6047
X9.9997Y-2.6447
X9.9997Y-4.4708
X9.9997Y-4.5108
X9.9997Y-6.3369
X9.9997Y-6.3769
X9.9997Y-8.2031
X9.9997Y-8.2431
X10.0047Y-2.3197
X10.0047Y-4.1858
X10.0047Y-6.0519
X10.0047Y-7.9181
X10.0297Y-2.4397
X10.0297Y-2.4697
X10.0297Y-2.4997
X10.0297Y-4.3058
X10.0297Y-4.3358
X10.0297Y-4.3658
X10.0297Y-6.1719
X10.0297Y-6.2019
X10.0297Y-6.2319
X10.0297Y-8.0381
X10.0297Y-8.0681
X10.0297Y-8.0981
X10.0497Y-2.2997
X10.0497Y-4.1658
X10.0497Y-6.0319
X10.0497Y-7.8981
X10.1697Y-2.1597
X10.1697Y-4.0258
X10.1697Y-5.8919
X10.1697Y-7.7581
X10.1738Y-2.2297
X10.1738Y-4.0958
X10.1738Y-5.9619
X10.1738Y-7.8281
X10.1749Y-2.1914
X10.1749Y-4.0576
X10.1749Y-5.9237
X10.1749Y-7.7899
X10.2147Y-2.2797
X10.2147Y-4.1458
X10.2147Y-6.0119
X10.2147Y-7.8781
X10.2397Y-1.3697
X10.2397Y-1.7597
X10.2397Y-3.2358
X10.2397Y-3.6258
X10.2397Y-5.1019
X10.2397Y-5.4919
X10.2397Y-6.9681
X10.2397Y-7.3581
X10.2447Y-1.9647
X10.2447Y-3.8308
X10.2447Y-5.6969
X10.2447Y-7.5631
X10.2647Y-1.9347
X10.2647Y-3.8008
X10.2647Y-5.6669
X10.2647Y-7.5331
X10.2997Y-2.1447
X10.2997Y-4.0108
X10.2997Y-5.8769
X10.2997Y-7.7431
X10.3022Y-2.3265
X10.3022Y-4.1927
X10.3022Y-6.0588
X10.3022Y-7.925
X10.3417Y-2.2547
X10.3417Y-4.1208
X10.3417Y-5.9869
X10.3417Y-7.8531
X10.4297Y-1.7997
X10.4297Y-3.6658
X10.4297Y-5.5319
X10.4297Y-7.3981
X10.4317Y-2.1447
X10.4317Y-4.0108
X10.4317Y-5.8769
X10.4317Y-7.7431
X10.4397Y-1.4797
X10.4397Y-2.3222
X10.4397Y-3.3458
X10.4397Y-4.1883
X10.4397Y-5.2119
X10.4397Y-6.0544
X10.4397Y-7.0781
X10.4397Y-7.9206
X10.4847Y-2.2147
X10.4847Y-4.0808
X10.4847Y-5.9469
X10.4847Y-7.8131
X10.5617Y-2.1447
X10.5617Y-4.0108
X10.5617Y-5.8769
X10.5617Y-7.7431
X10.5644Y-2.294
X10.5644Y-4.1602
X10.5644Y-6.0263
X10.5644Y-7.8925
X10.6147Y-2.2247
X10.6147Y-4.0908
X10.6147Y-5.9569
X10.6147Y-7.8231
X10.6547Y-2.2347
X10.6547Y-4.1008
X10.6547Y-5.9669
X10.6547Y-7.8331
X10.6897Y-2.2197
X10.6897Y-4.0858
X10.6897Y-5.9519
X10.6897Y-7.8181
T2
X4.562Y-5.1419
X4.562Y-5.2419
X4.562Y-5.3419
X4.562Y-5.4419
X4.562Y-5.5419
X4.562Y-5.6419
X4.562Y-5.7419
X4.662Y-5.1419
X4.662Y-5.2419
X4.662Y-5.3419
X4.662Y-5.4419
X4.662Y-5.5419
X4.662Y-5.6419
X4.662Y-5.7419
X7.3555Y-5.3419
X7.3555Y-5.4419
X7.3555Y-5.5419
X7.3555Y-5.6419
X7.3555Y-5.7419
X7.3555Y-5.8419
X5.3712Y-7.2081
X5.3712Y-7.3081
X5.3712Y-7.4081
X5.3712Y-7.5081
X5.3712Y-7.6081
X5.3712Y-7.7081
X5.3712Y-1.6097
X5.3712Y-1.7097
X5.3712Y-1.8097
X5.3712Y-1.9097
X5.3712Y-2.0097
X5.3712Y-2.1097
X7.3555Y-3.4758
X7.3555Y-3.5758
X7.3555Y-3.6758
X7.3555Y-3.7758
X7.3555Y-3.8758
X7.3555Y-3.9758
X6.5462Y-3.2758
X6.5462Y-3.3758
X6.5462Y-3.4758
X6.5462Y-3.5758
X6.5462Y-3.6758
X6.5462Y-3.7758
X6.5462Y-3.8758
X6.6462Y-3.2758
X6.6462Y-3.3758
X6.6462Y-3.4758
X6.6462Y-3.5758
X6.6462Y-3.6758
X6.6462Y-3.7758
X6.6462Y-3.8758
X1.4027Y-1.6097
X1.4027Y-1.7097
X1.4027Y-1.8097
X1.4027Y-1.9097
X1.4027Y-2.0097
X1.4027Y-2.1097
X5.3712Y-5.3419
X5.3712Y-5.4419
X5.3712Y-5.5419
X5.3712Y-5.6419
X5.3712Y-5.7419
X5.3712Y-5.8419
X3.387Y-5.1357
X3.387Y-5.2357
X3.387Y-7.2081
X3.387Y-7.3081
X3.387Y-7.4081
X3.387Y-7.5081
X3.387Y-7.6081
X3.387Y-7.7081
X3.387Y-1.6097
X3.387Y-1.7097
X3.387Y-1.8097
X3.387Y-1.9097
X3.387Y-2.0097
X3.387Y-2.1097
X5.3712Y-3.4758
X5.3712Y-3.5758
X5.3712Y-3.6758
X5.3712Y-3.7758
X5.3712Y-3.8758
X5.3712Y-3.9758
X6.5462Y-7.0081
X6.5462Y-7.1081
X6.5462Y-7.2081
X6.5462Y-7.3081
X6.5462Y-7.4081
X6.5462Y-7.5081
X6.5462Y-7.6081
X6.6462Y-7.0081
X6.6462Y-7.1081
X6.6462Y-7.2081
X6.6462Y-7.3081
X6.6462Y-7.4081
X6.6462Y-7.5081
X6.6462Y-7.6081
X10.5147Y-3.2758
X10.5147Y-3.3758
X10.5147Y-3.4758
X10.5147Y-3.5758
X10.5147Y-3.6758
X10.5147Y-3.7758
X10.5147Y-3.8758
X10.6147Y-3.2758
X10.6147Y-3.3758
X10.6147Y-3.4758
X10.6147Y-3.5758
X10.6147Y-3.6758
X10.6147Y-3.7758
X10.6147Y-3.8758
X10.5147Y-1.4097
X10.5147Y-1.5097
X10.5147Y-1.6097
X10.5147Y-1.7097
X10.5147Y-1.8097
X10.5147Y-1.9097
X10.5147Y-2.0097
X10.6147Y-1.4097
X10.6147Y-1.5097
X10.6147Y-1.6097
X10.6147Y-1.7097
X10.6147Y-1.8097
X10.6147Y-1.9097
X10.6147Y-2.0097
X5.3712Y-5.1357
X5.3712Y-5.2357
X6.5462Y-5.1419
X6.5462Y-5.2419
X6.5462Y-5.3419
X6.5462Y-5.4419
X6.5462Y-5.5419
X6.5462Y-5.6419
X6.5462Y-5.7419
X6.6462Y-5.1419
X6.6462Y-5.2419
X6.6462Y-5.3419
X6.6462Y-5.4419
X6.6462Y-5.5419
X6.6462Y-5.6419
X6.6462Y-5.7419
X9.3397Y-3.4758
X9.3397Y-3.5758
X9.3397Y-3.6758
X9.3397Y-3.7758
X9.3397Y-3.8758
X9.3397Y-3.9758
X1.4027Y-5.1357
X1.4027Y-5.2357
X4.562Y-1.4097
X4.562Y-1.5097
X4.562Y-1.6097
X4.562Y-1.7097
X4.562Y-1.8097
X4.562Y-1.9097
X4.562Y-2.0097
X4.662Y-1.4097
X4.662Y-1.5097
X4.662Y-1.6097
X4.662Y-1.7097
X4.662Y-1.8097
X4.662Y-1.9097
X4.662Y-2.0097
X3.387Y-7.0019
X3.387Y-7.1019
X9.3397Y-5.1357
X9.3397Y-5.2357
X7.3555Y-5.1357
X7.3555Y-5.2357
X5.3712Y-7.0019
X5.3712Y-7.1019
X3.387Y-5.3419
X3.387Y-5.4419
X3.387Y-5.5419
X3.387Y-5.6419
X3.387Y-5.7419
X3.387Y-5.8419
X1.4027Y-7.2081
X1.4027Y-7.3081
X1.4027Y-7.4081
X1.4027Y-7.5081
X1.4027Y-7.6081
X1.4027Y-7.7081
X5.3712Y-1.4035
X5.3712Y-1.5035
X9.3397Y-7.2081
X9.3397Y-7.3081
X9.3397Y-7.4081
X9.3397Y-7.5081
X9.3397Y-7.6081
X9.3397Y-7.7081
X1.4027Y-7.0019
X1.4027Y-7.1019
X3.387Y-1.4035
X3.387Y-1.5035
X2.5777Y-7.0081
X2.5777Y-7.1081
X2.5777Y-7.2081
X2.5777Y-7.3081
X2.5777Y-7.4081
X2.5777Y-7.5081
X2.5777Y-7.6081
X2.6777Y-7.0081
X2.6777Y-7.1081
X2.6777Y-7.2081
X2.6777Y-7.3081
X2.6777Y-7.4081
X2.6777Y-7.5081
X2.6777Y-7.6081
X8.5305Y-3.2758
X8.5305Y-3.3758
X8.5305Y-3.4758
X8.5305Y-3.5758
X8.5305Y-3.6758
X8.5305Y-3.7758
X8.5305Y-3.8758
X8.6305Y-3.2758
X8.6305Y-3.3758
X8.6305Y-3.4758
X8.6305Y-3.5758
X8.6305Y-3.6758
X8.6305Y-3.7758
X8.6305Y-3.8758
X7.3555Y-7.0019
X7.3555Y-7.1019
X8.5305Y-7.0081
X8.5305Y-7.1081
X8.5305Y-7.2081
X8.5305Y-7.3081
X8.5305Y-7.4081
X8.5305Y-7.5081
X8.5305Y-7.6081
X8.6305Y-7.0081
X8.6305Y-7.1081
X8.6305Y-7.2081
X8.6305Y-7.3081
X8.6305Y-7.4081
X8.6305Y-7.5081
X8.6305Y-7.6081
X7.3555Y-1.4035
X7.3555Y-1.5035
X2.5777Y-3.2758
X2.5777Y-3.3758
X2.5777Y-3.4758
X2.5777Y-3.5758
X2.5777Y-3.6758
X2.5777Y-3.7758
X2.5777Y-3.8758
X2.6777Y-3.2758
X2.6777Y-3.3758
X2.6777Y-3.4758
X2.6777Y-3.5758
X2.6777Y-3.6758
X2.6777Y-3.7758
X2.6777Y-3.8758
X1.4027Y-5.3419
X1.4027Y-5.4419
X1.4027Y-5.5419
X1.4027Y-5.6419
X1.4027Y-5.7419
X1.4027Y-5.8419
X3.387Y-3.4758
X3.387Y-3.5758
X3.387Y-3.6758
X3.387Y-3.7758
X3.387Y-3.8758
X3.387Y-3.9758
X9.3397Y-7.0019
X9.3397Y-7.1019
X9.3397Y-1.4035
X9.3397Y-1.5035
X2.5777Y-1.4097
X2.5777Y-1.5097
X2.5777Y-1.6097
X2.5777Y-1.7097
X2.5777Y-1.8097
X2.5777Y-1.9097
X2.5777Y-2.0097
X2.6777Y-1.4097
X2.6777Y-1.5097
X2.6777Y-1.6097
X2.6777Y-1.7097
X2.6777Y-1.8097
X2.6777Y-1.9097
X2.6777Y-2.0097
X7.3555Y-7.2081
X7.3555Y-7.3081
X7.3555Y-7.4081
X7.3555Y-7.5081
X7.3555Y-7.6081
X7.3555Y-7.7081
X1.4027Y-3.4758
X1.4027Y-3.5758
X1.4027Y-3.6758
X1.4027Y-3.7758
X1.4027Y-3.8758
X1.4027Y-3.9758
X8.5305Y-5.1419
X8.5305Y-5.2419
X8.5305Y-5.3419
X8.5305Y-5.4419
X8.5305Y-5.5419
X8.5305Y-5.6419
X8.5305Y-5.7419
X8.6305Y-5.1419
X8.6305Y-5.2419
X8.6305Y-5.3419
X8.6305Y-5.4419
X8.6305Y-5.5419
X8.6305Y-5.6419
X8.6305Y-5.7419
X6.5462Y-1.4097
X6.5462Y-1.5097
X6.5462Y-1.6097
X6.5462Y-1.7097
X6.5462Y-1.8097
X6.5462Y-1.9097
X6.5462Y-2.0097
X6.6462Y-1.4097
X6.6462Y-1.5097
X6.6462Y-1.6097
X6.6462Y-1.7097
X6.6462Y-1.8097
X6.6462Y-1.9097
X6.6462Y-2.0097
X1.4027Y-3.2696
X1.4027Y-3.3696
X1.4027Y-1.4035
X1.4027Y-1.5035
X3.387Y-3.2696
X3.387Y-3.3696
X2.5777Y-5.1419
X2.5777Y-5.2419
X2.5777Y-5.3419
X2.5777Y-5.4419
X2.5777Y-5.5419
X2.5777Y-5.6419
X2.5777Y-5.7419
X2.6777Y-5.1419
X2.6777Y-5.2419
X2.6777Y-5.3419
X2.6777Y-5.4419
X2.6777Y-5.5419
X2.6777Y-5.6419
X2.6777Y-5.7419
X4.562Y-7.0081
X4.562Y-7.1081
X4.562Y-7.2081
X4.562Y-7.3081
X4.562Y-7.4081
X4.562Y-7.5081
X4.562Y-7.6081
X4.662Y-7.0081
X4.662Y-7.1081
X4.662Y-7.2081
X4.662Y-7.3081
X4.662Y-7.4081
X4.662Y-7.5081
X4.662Y-7.6081
X9.3397Y-5.3419
X9.3397Y-5.4419
X9.3397Y-5.5419
X9.3397Y-5.6419
X9.3397Y-5.7419
X9.3397Y-5.8419
X9.3397Y-1.6097
X9.3397Y-1.7097
X9.3397Y-1.8097
X9.3397Y-1.9097
X9.3397Y-2.0097
X9.3397Y-2.1097
X5.3712Y-3.2696
X5.3712Y-3.3696
X10.5147Y-7.0081
X10.5147Y-7.1081
X10.5147Y-7.2081
X10.5147Y-7.3081
X10.5147Y-7.4081
X10.5147Y-7.5081
X10.5147Y-7.6081
X10.6147Y-7.0081
X10.6147Y-7.1081
X10.6147Y-7.2081
X10.6147Y-7.3081
X10.6147Y-7.4081
X10.6147Y-7.5081
X10.6147Y-7.6081
X4.562Y-3.2758
X4.562Y-3.3758
X4.562Y-3.4758
X4.562Y-3.5758
X4.562Y-3.6758
X4.562Y-3.7758
X4.562Y-3.8758
X4.662Y-3.2758
X4.662Y-3.3758
X4.662Y-3.4758
X4.662Y-3.5758
X4.662Y-3.6758
X4.662Y-3.7758
X4.662Y-3.8758
X9.3397Y-3.2696
X9.3397Y-3.3696
X10.5147Y-5.1419
X10.5147Y-5.2419
X10.5147Y-5.3419
X10.5147Y-5.4419
X10.5147Y-5.5419
X10.5147Y-5.6419
X10.5147Y-5.7419
X10.6147Y-5.1419
X10.6147Y-5.2419
X10.6147Y-5.3419
X10.6147Y-5.4419
X10.6147Y-5.5419
X10.6147Y-5.6419
X10.6147Y-5.7419
X8.5305Y-1.4097
X8.5305Y-1.5097
X8.5305Y-1.6097
X8.5305Y-1.7097
X8.5305Y-1.8097
X8.5305Y-1.9097
X8.5305Y-2.0097
X8.6305Y-1.4097
X8.6305Y-1.5097
X8.6305Y-1.6097
X8.6305Y-1.7097
X8.6305Y-1.8097
X8.6305Y-1.9097
X8.6305Y-2.0097
X7.3555Y-3.2696
X7.3555Y-3.3696
X7.3555Y-1.6097
X7.3555Y-1.7097
X7.3555Y-1.8097
X7.3555Y-1.9097
X7.3555Y-2.0097
X7.3555Y-2.1097
T0
M30
