G04 #@! TF.GenerationSoftware,KiCad,Pcbnew,5.1.5+dfsg1-2build2*
G04 #@! TF.CreationDate,2020-09-10T23:56:58-04:00*
G04 #@! TF.ProjectId,Xenium2019-Panel,58656e69-756d-4323-9031-392d50616e65,rev?*
G04 #@! TF.SameCoordinates,Original*
G04 #@! TF.FileFunction,Profile,NP*
%FSLAX46Y46*%
G04 Gerber Fmt 4.6, Leading zero omitted, Abs format (unit mm)*
G04 Created by KiCad (PCBNEW 5.1.5+dfsg1-2build2) date 2020-09-10 23:56:58*
%MOMM*%
%LPD*%
G04 APERTURE LIST*
%ADD10C,0.050000*%
G04 APERTURE END LIST*
D10*
X36827561Y-123617561D02*
X30320000Y-123617561D01*
X275789265Y-178249333D02*
G75*
G02X272789265Y-178249333I-1500000J0D01*
G01*
X225389265Y-178249333D02*
G75*
G02X222389265Y-178249333I-1500000J0D01*
G01*
X174989265Y-178249333D02*
G75*
G02X171989265Y-178249333I-1500000J0D01*
G01*
X124589265Y-178249333D02*
G75*
G02X121589265Y-178249333I-1500000J0D01*
G01*
X74189265Y-178249333D02*
G75*
G02X71189265Y-178249333I-1500000J0D01*
G01*
X275789265Y-130849333D02*
G75*
G02X272789265Y-130849333I-1500000J0D01*
G01*
X225389265Y-130849333D02*
G75*
G02X222389265Y-130849333I-1500000J0D01*
G01*
X174989265Y-130849333D02*
G75*
G02X171989265Y-130849333I-1500000J0D01*
G01*
X124589265Y-130849333D02*
G75*
G02X121589265Y-130849333I-1500000J0D01*
G01*
X275789265Y-178249333D02*
X275790000Y-172517561D01*
X225389265Y-178249333D02*
X225390000Y-172517561D01*
X174989265Y-178249333D02*
X174990000Y-172517561D01*
X124589265Y-178249333D02*
X124590000Y-172517561D01*
X74189265Y-178249333D02*
X74190000Y-172517561D01*
X275789265Y-130849333D02*
X275790000Y-125117561D01*
X225389265Y-130849333D02*
X225390000Y-125117561D01*
X174989265Y-130849333D02*
X174990000Y-125117561D01*
X124589265Y-130849333D02*
X124590000Y-125117561D01*
X230419266Y-202988258D02*
X230420000Y-211890000D01*
X180019266Y-202988258D02*
X180020000Y-211890000D01*
X129619266Y-202988258D02*
X129620000Y-211890000D01*
X79219266Y-202988258D02*
X79220000Y-211890000D01*
X28819266Y-202988258D02*
X28820000Y-211890000D01*
X230419266Y-155588258D02*
X230420000Y-164490000D01*
X180019266Y-155588258D02*
X180020000Y-164490000D01*
X129619266Y-155588258D02*
X129620000Y-164490000D01*
X79219266Y-155588258D02*
X79220000Y-164490000D01*
X265387161Y-213390361D02*
X274290000Y-213390000D01*
X214987161Y-213390361D02*
X223890000Y-213390000D01*
X164587161Y-213390361D02*
X173490000Y-213390000D01*
X114187161Y-213390361D02*
X123090000Y-213390000D01*
X63787161Y-213390361D02*
X72690000Y-213390000D01*
X265387161Y-165990361D02*
X274290000Y-165990000D01*
X214987161Y-165990361D02*
X223890000Y-165990000D01*
X164587161Y-165990361D02*
X173490000Y-165990000D01*
X114187161Y-165990361D02*
X123090000Y-165990000D01*
X267937864Y-171017561D02*
X274290000Y-171017561D01*
X217537864Y-171017561D02*
X223890000Y-171017561D01*
X167137864Y-171017561D02*
X173490000Y-171017561D01*
X116737864Y-171017561D02*
X123090000Y-171017561D01*
X66337864Y-171017561D02*
X72690000Y-171017561D01*
X267937864Y-123617561D02*
X274290000Y-123617561D01*
X217537864Y-123617561D02*
X223890000Y-123617561D01*
X167137864Y-123617561D02*
X173490000Y-123617561D01*
X116737864Y-123617561D02*
X123090000Y-123617561D01*
X272789264Y-202988258D02*
G75*
G02X275789264Y-202988258I1500000J0D01*
G01*
X222389264Y-202988258D02*
G75*
G02X225389264Y-202988258I1500000J0D01*
G01*
X171989264Y-202988258D02*
G75*
G02X174989264Y-202988258I1500000J0D01*
G01*
X121589264Y-202988258D02*
G75*
G02X124589264Y-202988258I1500000J0D01*
G01*
X71189264Y-202988258D02*
G75*
G02X74189264Y-202988258I1500000J0D01*
G01*
X272789264Y-155588258D02*
G75*
G02X275789264Y-155588258I1500000J0D01*
G01*
X222389264Y-155588258D02*
G75*
G02X225389264Y-155588258I1500000J0D01*
G01*
X171989264Y-155588258D02*
G75*
G02X174989264Y-155588258I1500000J0D01*
G01*
X121589264Y-155588258D02*
G75*
G02X124589264Y-155588258I1500000J0D01*
G01*
X265387161Y-213390361D02*
G75*
G02X265387161Y-210390361I0J1500000D01*
G01*
X214987161Y-213390361D02*
G75*
G02X214987161Y-210390361I0J1500000D01*
G01*
X164587161Y-213390361D02*
G75*
G02X164587161Y-210390361I0J1500000D01*
G01*
X114187161Y-213390361D02*
G75*
G02X114187161Y-210390361I0J1500000D01*
G01*
X63787161Y-213390361D02*
G75*
G02X63787161Y-210390361I0J1500000D01*
G01*
X265387161Y-165990361D02*
G75*
G02X265387161Y-162990361I0J1500000D01*
G01*
X214987161Y-165990361D02*
G75*
G02X214987161Y-162990361I0J1500000D01*
G01*
X164587161Y-165990361D02*
G75*
G02X164587161Y-162990361I0J1500000D01*
G01*
X114187161Y-165990361D02*
G75*
G02X114187161Y-162990361I0J1500000D01*
G01*
X233419264Y-179533665D02*
G75*
G02X230419264Y-179533665I-1500000J0D01*
G01*
X183019264Y-179533665D02*
G75*
G02X180019264Y-179533665I-1500000J0D01*
G01*
X132619264Y-179533665D02*
G75*
G02X129619264Y-179533665I-1500000J0D01*
G01*
X82219264Y-179533665D02*
G75*
G02X79219264Y-179533665I-1500000J0D01*
G01*
X31819264Y-179533665D02*
G75*
G02X28819264Y-179533665I-1500000J0D01*
G01*
X233419264Y-132133665D02*
G75*
G02X230419264Y-132133665I-1500000J0D01*
G01*
X183019264Y-132133665D02*
G75*
G02X180019264Y-132133665I-1500000J0D01*
G01*
X132619264Y-132133665D02*
G75*
G02X129619264Y-132133665I-1500000J0D01*
G01*
X82219264Y-132133665D02*
G75*
G02X79219264Y-132133665I-1500000J0D01*
G01*
X238427561Y-171017561D02*
X231920000Y-171017561D01*
X188027561Y-171017561D02*
X181520000Y-171017561D01*
X137627561Y-171017561D02*
X131120000Y-171017561D01*
X87227561Y-171017561D02*
X80720000Y-171017561D01*
X36827561Y-171017561D02*
X30320000Y-171017561D01*
X238427561Y-123617561D02*
X231920000Y-123617561D01*
X188027561Y-123617561D02*
X181520000Y-123617561D01*
X137627561Y-123617561D02*
X131120000Y-123617561D01*
X87227561Y-123617561D02*
X80720000Y-123617561D01*
X239025315Y-209646411D02*
X234163215Y-204784311D01*
X188625315Y-209646411D02*
X183763215Y-204784311D01*
X138225315Y-209646411D02*
X133363215Y-204784311D01*
X87825315Y-209646411D02*
X82963215Y-204784311D01*
X37425315Y-209646411D02*
X32563215Y-204784311D01*
X239025315Y-162246411D02*
X234163215Y-157384311D01*
X188625315Y-162246411D02*
X183763215Y-157384311D01*
X138225315Y-162246411D02*
X133363215Y-157384311D01*
X87825315Y-162246411D02*
X82963215Y-157384311D01*
X267937864Y-174017560D02*
G75*
G02X270464193Y-174882446I75038J-3902959D01*
G01*
X217537864Y-174017560D02*
G75*
G02X220064193Y-174882446I75038J-3902959D01*
G01*
X167137864Y-174017560D02*
G75*
G02X169664193Y-174882446I75038J-3902959D01*
G01*
X116737864Y-174017560D02*
G75*
G02X119264193Y-174882446I75038J-3902959D01*
G01*
X66337864Y-174017560D02*
G75*
G02X68864193Y-174882446I75038J-3902959D01*
G01*
X267937864Y-126617560D02*
G75*
G02X270464193Y-127482446I75038J-3902959D01*
G01*
X217537864Y-126617560D02*
G75*
G02X220064193Y-127482446I75038J-3902959D01*
G01*
X167137864Y-126617560D02*
G75*
G02X169664193Y-127482446I75038J-3902959D01*
G01*
X116737864Y-126617560D02*
G75*
G02X119264193Y-127482446I75038J-3902959D01*
G01*
X267183215Y-209646411D02*
G75*
G02X265387161Y-210390361I-1796053J1796051D01*
G01*
X216783215Y-209646411D02*
G75*
G02X214987161Y-210390361I-1796053J1796051D01*
G01*
X166383215Y-209646411D02*
G75*
G02X164587161Y-210390361I-1796053J1796051D01*
G01*
X115983215Y-209646411D02*
G75*
G02X114187161Y-210390361I-1796053J1796051D01*
G01*
X65583215Y-209646411D02*
G75*
G02X63787161Y-210390361I-1796053J1796051D01*
G01*
X267183215Y-162246411D02*
G75*
G02X265387161Y-162990361I-1796053J1796051D01*
G01*
X216783215Y-162246411D02*
G75*
G02X214987161Y-162990361I-1796053J1796051D01*
G01*
X166383215Y-162246411D02*
G75*
G02X164587161Y-162990361I-1796053J1796051D01*
G01*
X115983215Y-162246411D02*
G75*
G02X114187161Y-162990361I-1796053J1796051D01*
G01*
X233419266Y-202988258D02*
G75*
G03X234163215Y-204784311I2539998J-2D01*
G01*
X183019266Y-202988258D02*
G75*
G03X183763215Y-204784311I2539998J-2D01*
G01*
X132619266Y-202988258D02*
G75*
G03X133363215Y-204784311I2539998J-2D01*
G01*
X82219266Y-202988258D02*
G75*
G03X82963215Y-204784311I2539998J-2D01*
G01*
X31819266Y-202988258D02*
G75*
G03X32563215Y-204784311I2539998J-2D01*
G01*
X233419266Y-155588258D02*
G75*
G03X234163215Y-157384311I2539998J-2D01*
G01*
X183019266Y-155588258D02*
G75*
G03X183763215Y-157384311I2539998J-2D01*
G01*
X132619266Y-155588258D02*
G75*
G03X133363215Y-157384311I2539998J-2D01*
G01*
X82219266Y-155588258D02*
G75*
G03X82963215Y-157384311I2539998J-2D01*
G01*
X240821368Y-210390361D02*
G75*
G02X240821368Y-213390361I0J-1500000D01*
G01*
X190421368Y-210390361D02*
G75*
G02X190421368Y-213390361I0J-1500000D01*
G01*
X140021368Y-210390361D02*
G75*
G02X140021368Y-213390361I0J-1500000D01*
G01*
X89621368Y-210390361D02*
G75*
G02X89621368Y-213390361I0J-1500000D01*
G01*
X39221368Y-210390361D02*
G75*
G02X39221368Y-213390361I0J-1500000D01*
G01*
X240821368Y-162990361D02*
G75*
G02X240821368Y-165990361I0J-1500000D01*
G01*
X190421368Y-162990361D02*
G75*
G02X190421368Y-165990361I0J-1500000D01*
G01*
X140021368Y-162990361D02*
G75*
G02X140021368Y-165990361I0J-1500000D01*
G01*
X89621368Y-162990361D02*
G75*
G02X89621368Y-165990361I0J-1500000D01*
G01*
X239025315Y-209646412D02*
G75*
G03X240821368Y-210390361I1796051J1796051D01*
G01*
X188625315Y-209646412D02*
G75*
G03X190421368Y-210390361I1796051J1796051D01*
G01*
X138225315Y-209646412D02*
G75*
G03X140021368Y-210390361I1796051J1796051D01*
G01*
X87825315Y-209646412D02*
G75*
G03X89621368Y-210390361I1796051J1796051D01*
G01*
X37425315Y-209646412D02*
G75*
G03X39221368Y-210390361I1796051J1796051D01*
G01*
X239025315Y-162246412D02*
G75*
G03X240821368Y-162990361I1796051J1796051D01*
G01*
X188625315Y-162246412D02*
G75*
G03X190421368Y-162990361I1796051J1796051D01*
G01*
X138225315Y-162246412D02*
G75*
G03X140021368Y-162990361I1796051J1796051D01*
G01*
X87825315Y-162246412D02*
G75*
G03X89621368Y-162990361I1796051J1796051D01*
G01*
X274290000Y-171017561D02*
G75*
G02X275790000Y-172517561I0J-1500000D01*
G01*
X223890000Y-171017561D02*
G75*
G02X225390000Y-172517561I0J-1500000D01*
G01*
X173490000Y-171017561D02*
G75*
G02X174990000Y-172517561I0J-1500000D01*
G01*
X123090000Y-171017561D02*
G75*
G02X124590000Y-172517561I0J-1500000D01*
G01*
X72690000Y-171017561D02*
G75*
G02X74190000Y-172517561I0J-1500000D01*
G01*
X274290000Y-123617561D02*
G75*
G02X275790000Y-125117561I0J-1500000D01*
G01*
X223890000Y-123617561D02*
G75*
G02X225390000Y-125117561I0J-1500000D01*
G01*
X173490000Y-123617561D02*
G75*
G02X174990000Y-125117561I0J-1500000D01*
G01*
X123090000Y-123617561D02*
G75*
G02X124590000Y-125117561I0J-1500000D01*
G01*
X230420000Y-172517561D02*
G75*
G02X231920000Y-171017561I1500000J0D01*
G01*
X180020000Y-172517561D02*
G75*
G02X181520000Y-171017561I1500000J0D01*
G01*
X129620000Y-172517561D02*
G75*
G02X131120000Y-171017561I1500000J0D01*
G01*
X79220000Y-172517561D02*
G75*
G02X80720000Y-171017561I1500000J0D01*
G01*
X28820000Y-172517561D02*
G75*
G02X30320000Y-171017561I1500000J0D01*
G01*
X230420000Y-125117561D02*
G75*
G02X231920000Y-123617561I1500000J0D01*
G01*
X180020000Y-125117561D02*
G75*
G02X181520000Y-123617561I1500000J0D01*
G01*
X129620000Y-125117561D02*
G75*
G02X131120000Y-123617561I1500000J0D01*
G01*
X79220000Y-125117561D02*
G75*
G02X80720000Y-123617561I1500000J0D01*
G01*
X267937864Y-174017561D02*
G75*
G02X267937864Y-171017561I0J1500000D01*
G01*
X217537864Y-174017561D02*
G75*
G02X217537864Y-171017561I0J1500000D01*
G01*
X167137864Y-174017561D02*
G75*
G02X167137864Y-171017561I0J1500000D01*
G01*
X116737864Y-174017561D02*
G75*
G02X116737864Y-171017561I0J1500000D01*
G01*
X66337864Y-174017561D02*
G75*
G02X66337864Y-171017561I0J1500000D01*
G01*
X267937864Y-126617561D02*
G75*
G02X267937864Y-123617561I0J1500000D01*
G01*
X217537864Y-126617561D02*
G75*
G02X217537864Y-123617561I0J1500000D01*
G01*
X167137864Y-126617561D02*
G75*
G02X167137864Y-123617561I0J1500000D01*
G01*
X116737864Y-126617561D02*
G75*
G02X116737864Y-123617561I0J1500000D01*
G01*
X231920000Y-213390000D02*
G75*
G02X230420000Y-211890000I0J1500000D01*
G01*
X181520000Y-213390000D02*
G75*
G02X180020000Y-211890000I0J1500000D01*
G01*
X131120000Y-213390000D02*
G75*
G02X129620000Y-211890000I0J1500000D01*
G01*
X80720000Y-213390000D02*
G75*
G02X79220000Y-211890000I0J1500000D01*
G01*
X30320000Y-213390000D02*
G75*
G02X28820000Y-211890000I0J1500000D01*
G01*
X231920000Y-165990000D02*
G75*
G02X230420000Y-164490000I0J1500000D01*
G01*
X181520000Y-165990000D02*
G75*
G02X180020000Y-164490000I0J1500000D01*
G01*
X131120000Y-165990000D02*
G75*
G02X129620000Y-164490000I0J1500000D01*
G01*
X80720000Y-165990000D02*
G75*
G02X79220000Y-164490000I0J1500000D01*
G01*
X272789264Y-202988258D02*
G75*
G02X272045315Y-204784311I-2539999J-2D01*
G01*
X222389264Y-202988258D02*
G75*
G02X221645315Y-204784311I-2539999J-2D01*
G01*
X171989264Y-202988258D02*
G75*
G02X171245315Y-204784311I-2539999J-2D01*
G01*
X121589264Y-202988258D02*
G75*
G02X120845315Y-204784311I-2539999J-2D01*
G01*
X71189264Y-202988258D02*
G75*
G02X70445315Y-204784311I-2539999J-2D01*
G01*
X272789264Y-155588258D02*
G75*
G02X272045315Y-157384311I-2539999J-2D01*
G01*
X222389264Y-155588258D02*
G75*
G02X221645315Y-157384311I-2539999J-2D01*
G01*
X171989264Y-155588258D02*
G75*
G02X171245315Y-157384311I-2539999J-2D01*
G01*
X121589264Y-155588258D02*
G75*
G02X120845315Y-157384311I-2539999J-2D01*
G01*
X272039433Y-176447418D02*
X270464193Y-174882446D01*
X221639433Y-176447418D02*
X220064193Y-174882446D01*
X171239433Y-176447418D02*
X169664193Y-174882446D01*
X120839433Y-176447418D02*
X119264193Y-174882446D01*
X70439433Y-176447418D02*
X68864193Y-174882446D01*
X272039433Y-129047418D02*
X270464193Y-127482446D01*
X221639433Y-129047418D02*
X220064193Y-127482446D01*
X171239433Y-129047418D02*
X169664193Y-127482446D01*
X120839433Y-129047418D02*
X119264193Y-127482446D01*
X267183215Y-209646411D02*
X272045315Y-204784311D01*
X216783215Y-209646411D02*
X221645315Y-204784311D01*
X166383215Y-209646411D02*
X171245315Y-204784311D01*
X115983215Y-209646411D02*
X120845315Y-204784311D01*
X65583215Y-209646411D02*
X70445315Y-204784311D01*
X267183215Y-162246411D02*
X272045315Y-157384311D01*
X216783215Y-162246411D02*
X221645315Y-157384311D01*
X166383215Y-162246411D02*
X171245315Y-157384311D01*
X115983215Y-162246411D02*
X120845315Y-157384311D01*
X238427561Y-171017561D02*
G75*
G02X238427561Y-174017561I0J-1500000D01*
G01*
X188027561Y-171017561D02*
G75*
G02X188027561Y-174017561I0J-1500000D01*
G01*
X137627561Y-171017561D02*
G75*
G02X137627561Y-174017561I0J-1500000D01*
G01*
X87227561Y-171017561D02*
G75*
G02X87227561Y-174017561I0J-1500000D01*
G01*
X36827561Y-171017561D02*
G75*
G02X36827561Y-174017561I0J-1500000D01*
G01*
X238427561Y-123617561D02*
G75*
G02X238427561Y-126617561I0J-1500000D01*
G01*
X188027561Y-123617561D02*
G75*
G02X188027561Y-126617561I0J-1500000D01*
G01*
X137627561Y-123617561D02*
G75*
G02X137627561Y-126617561I0J-1500000D01*
G01*
X87227561Y-123617561D02*
G75*
G02X87227561Y-126617561I0J-1500000D01*
G01*
X230419264Y-179533665D02*
X230420000Y-172517561D01*
X180019264Y-179533665D02*
X180020000Y-172517561D01*
X129619264Y-179533665D02*
X129620000Y-172517561D01*
X79219264Y-179533665D02*
X79220000Y-172517561D01*
X28819264Y-179533665D02*
X28820000Y-172517561D01*
X230419264Y-132133665D02*
X230420000Y-125117561D01*
X180019264Y-132133665D02*
X180020000Y-125117561D01*
X129619264Y-132133665D02*
X129620000Y-125117561D01*
X79219264Y-132133665D02*
X79220000Y-125117561D01*
X240821368Y-213390361D02*
X231920000Y-213390000D01*
X190421368Y-213390361D02*
X181520000Y-213390000D01*
X140021368Y-213390361D02*
X131120000Y-213390000D01*
X89621368Y-213390361D02*
X80720000Y-213390000D01*
X39221368Y-213390361D02*
X30320000Y-213390000D01*
X240821368Y-165990361D02*
X231920000Y-165990000D01*
X190421368Y-165990361D02*
X181520000Y-165990000D01*
X140021368Y-165990361D02*
X131120000Y-165990000D01*
X89621368Y-165990361D02*
X80720000Y-165990000D01*
X275790000Y-211890000D02*
G75*
G02X274290000Y-213390000I-1500000J0D01*
G01*
X225390000Y-211890000D02*
G75*
G02X223890000Y-213390000I-1500000J0D01*
G01*
X174990000Y-211890000D02*
G75*
G02X173490000Y-213390000I-1500000J0D01*
G01*
X124590000Y-211890000D02*
G75*
G02X123090000Y-213390000I-1500000J0D01*
G01*
X74190000Y-211890000D02*
G75*
G02X72690000Y-213390000I-1500000J0D01*
G01*
X275790000Y-164490000D02*
G75*
G02X274290000Y-165990000I-1500000J0D01*
G01*
X225390000Y-164490000D02*
G75*
G02X223890000Y-165990000I-1500000J0D01*
G01*
X174990000Y-164490000D02*
G75*
G02X173490000Y-165990000I-1500000J0D01*
G01*
X124590000Y-164490000D02*
G75*
G02X123090000Y-165990000I-1500000J0D01*
G01*
X230419266Y-202988258D02*
G75*
G02X233419266Y-202988258I1500000J0D01*
G01*
X180019266Y-202988258D02*
G75*
G02X183019266Y-202988258I1500000J0D01*
G01*
X129619266Y-202988258D02*
G75*
G02X132619266Y-202988258I1500000J0D01*
G01*
X79219266Y-202988258D02*
G75*
G02X82219266Y-202988258I1500000J0D01*
G01*
X28819266Y-202988258D02*
G75*
G02X31819266Y-202988258I1500000J0D01*
G01*
X230419266Y-155588258D02*
G75*
G02X233419266Y-155588258I1500000J0D01*
G01*
X180019266Y-155588258D02*
G75*
G02X183019266Y-155588258I1500000J0D01*
G01*
X129619266Y-155588258D02*
G75*
G02X132619266Y-155588258I1500000J0D01*
G01*
X79219266Y-155588258D02*
G75*
G02X82219266Y-155588258I1500000J0D01*
G01*
X272039432Y-176447418D02*
G75*
G02X272789265Y-178249333I-1790168J-1801916D01*
G01*
X221639432Y-176447418D02*
G75*
G02X222389265Y-178249333I-1790168J-1801916D01*
G01*
X171239432Y-176447418D02*
G75*
G02X171989265Y-178249333I-1790168J-1801916D01*
G01*
X120839432Y-176447418D02*
G75*
G02X121589265Y-178249333I-1790168J-1801916D01*
G01*
X70439432Y-176447418D02*
G75*
G02X71189265Y-178249333I-1790168J-1801916D01*
G01*
X272039432Y-129047418D02*
G75*
G02X272789265Y-130849333I-1790168J-1801916D01*
G01*
X221639432Y-129047418D02*
G75*
G02X222389265Y-130849333I-1790168J-1801916D01*
G01*
X171239432Y-129047418D02*
G75*
G02X171989265Y-130849333I-1790168J-1801916D01*
G01*
X120839432Y-129047418D02*
G75*
G02X121589265Y-130849333I-1790168J-1801916D01*
G01*
X233419265Y-179533665D02*
G75*
G02X238427561Y-174017561I5257589J258090D01*
G01*
X183019265Y-179533665D02*
G75*
G02X188027561Y-174017561I5257589J258090D01*
G01*
X132619265Y-179533665D02*
G75*
G02X137627561Y-174017561I5257589J258090D01*
G01*
X82219265Y-179533665D02*
G75*
G02X87227561Y-174017561I5257589J258090D01*
G01*
X31819265Y-179533665D02*
G75*
G02X36827561Y-174017561I5257589J258090D01*
G01*
X233419265Y-132133665D02*
G75*
G02X238427561Y-126617561I5257589J258090D01*
G01*
X183019265Y-132133665D02*
G75*
G02X188027561Y-126617561I5257589J258090D01*
G01*
X132619265Y-132133665D02*
G75*
G02X137627561Y-126617561I5257589J258090D01*
G01*
X82219265Y-132133665D02*
G75*
G02X87227561Y-126617561I5257589J258090D01*
G01*
X275789264Y-202988258D02*
X275790000Y-211890000D01*
X225389264Y-202988258D02*
X225390000Y-211890000D01*
X174989264Y-202988258D02*
X174990000Y-211890000D01*
X124589264Y-202988258D02*
X124590000Y-211890000D01*
X74189264Y-202988258D02*
X74190000Y-211890000D01*
X275789264Y-155588258D02*
X275790000Y-164490000D01*
X225389264Y-155588258D02*
X225390000Y-164490000D01*
X174989264Y-155588258D02*
X174990000Y-164490000D01*
X124589264Y-155588258D02*
X124590000Y-164490000D01*
X74189264Y-155588258D02*
X74190000Y-164490000D01*
X31819265Y-132133665D02*
G75*
G02X36827561Y-126617561I5257589J258090D01*
G01*
X70439432Y-129047418D02*
G75*
G02X71189265Y-130849333I-1790168J-1801916D01*
G01*
X28819266Y-155588258D02*
G75*
G02X31819266Y-155588258I1500000J0D01*
G01*
X74190000Y-164490000D02*
G75*
G02X72690000Y-165990000I-1500000J0D01*
G01*
X39221368Y-165990361D02*
X30320000Y-165990000D01*
X28819264Y-132133665D02*
X28820000Y-125117561D01*
X36827561Y-123617561D02*
G75*
G02X36827561Y-126617561I0J-1500000D01*
G01*
X65583215Y-162246411D02*
X70445315Y-157384311D01*
X70439433Y-129047418D02*
X68864193Y-127482446D01*
X71189264Y-155588258D02*
G75*
G02X70445315Y-157384311I-2539999J-2D01*
G01*
X30320000Y-165990000D02*
G75*
G02X28820000Y-164490000I0J1500000D01*
G01*
X66337864Y-126617561D02*
G75*
G02X66337864Y-123617561I0J1500000D01*
G01*
X28820000Y-125117561D02*
G75*
G02X30320000Y-123617561I1500000J0D01*
G01*
X72690000Y-123617561D02*
G75*
G02X74190000Y-125117561I0J-1500000D01*
G01*
X37425315Y-162246412D02*
G75*
G03X39221368Y-162990361I1796051J1796051D01*
G01*
X39221368Y-162990361D02*
G75*
G02X39221368Y-165990361I0J-1500000D01*
G01*
X31819266Y-155588258D02*
G75*
G03X32563215Y-157384311I2539998J-2D01*
G01*
X65583215Y-162246411D02*
G75*
G02X63787161Y-162990361I-1796053J1796051D01*
G01*
X66337864Y-126617560D02*
G75*
G02X68864193Y-127482446I75038J-3902959D01*
G01*
X37425315Y-162246411D02*
X32563215Y-157384311D01*
X31819264Y-132133665D02*
G75*
G02X28819264Y-132133665I-1500000J0D01*
G01*
X63787161Y-165990361D02*
G75*
G02X63787161Y-162990361I0J1500000D01*
G01*
X71189264Y-155588258D02*
G75*
G02X74189264Y-155588258I1500000J0D01*
G01*
X66337864Y-123617561D02*
X72690000Y-123617561D01*
X63787161Y-165990361D02*
X72690000Y-165990000D01*
X28819266Y-155588258D02*
X28820000Y-164490000D01*
X74189265Y-130849333D02*
X74190000Y-125117561D01*
X74189265Y-130849333D02*
G75*
G02X71189265Y-130849333I-1500000J0D01*
G01*
X280800000Y-218400000D02*
X280800000Y-23810000D01*
X275789265Y-83449333D02*
G75*
G02X272789265Y-83449333I-1500000J0D01*
G01*
X225389265Y-83449333D02*
G75*
G02X222389265Y-83449333I-1500000J0D01*
G01*
X174989265Y-83449333D02*
G75*
G02X171989265Y-83449333I-1500000J0D01*
G01*
X124589265Y-83449333D02*
G75*
G02X121589265Y-83449333I-1500000J0D01*
G01*
X74189265Y-83449333D02*
G75*
G02X71189265Y-83449333I-1500000J0D01*
G01*
X275789265Y-36049333D02*
G75*
G02X272789265Y-36049333I-1500000J0D01*
G01*
X225389265Y-36049333D02*
G75*
G02X222389265Y-36049333I-1500000J0D01*
G01*
X174989265Y-36049333D02*
G75*
G02X171989265Y-36049333I-1500000J0D01*
G01*
X124589265Y-36049333D02*
G75*
G02X121589265Y-36049333I-1500000J0D01*
G01*
X275789265Y-83449333D02*
X275790000Y-77717561D01*
X225389265Y-83449333D02*
X225390000Y-77717561D01*
X174989265Y-83449333D02*
X174990000Y-77717561D01*
X124589265Y-83449333D02*
X124590000Y-77717561D01*
X74189265Y-83449333D02*
X74190000Y-77717561D01*
X275789265Y-36049333D02*
X275790000Y-30317561D01*
X225389265Y-36049333D02*
X225390000Y-30317561D01*
X174989265Y-36049333D02*
X174990000Y-30317561D01*
X124589265Y-36049333D02*
X124590000Y-30317561D01*
X230419266Y-108188258D02*
X230420000Y-117090000D01*
X180019266Y-108188258D02*
X180020000Y-117090000D01*
X129619266Y-108188258D02*
X129620000Y-117090000D01*
X79219266Y-108188258D02*
X79220000Y-117090000D01*
X28819266Y-108188258D02*
X28820000Y-117090000D01*
X230419266Y-60788258D02*
X230420000Y-69690000D01*
X180019266Y-60788258D02*
X180020000Y-69690000D01*
X129619266Y-60788258D02*
X129620000Y-69690000D01*
X79219266Y-60788258D02*
X79220000Y-69690000D01*
X265387161Y-118590361D02*
X274290000Y-118590000D01*
X214987161Y-118590361D02*
X223890000Y-118590000D01*
X164587161Y-118590361D02*
X173490000Y-118590000D01*
X114187161Y-118590361D02*
X123090000Y-118590000D01*
X63787161Y-118590361D02*
X72690000Y-118590000D01*
X265387161Y-71190361D02*
X274290000Y-71190000D01*
X214987161Y-71190361D02*
X223890000Y-71190000D01*
X164587161Y-71190361D02*
X173490000Y-71190000D01*
X114187161Y-71190361D02*
X123090000Y-71190000D01*
X267937864Y-76217561D02*
X274290000Y-76217561D01*
X217537864Y-76217561D02*
X223890000Y-76217561D01*
X167137864Y-76217561D02*
X173490000Y-76217561D01*
X116737864Y-76217561D02*
X123090000Y-76217561D01*
X66337864Y-76217561D02*
X72690000Y-76217561D01*
X267937864Y-28817561D02*
X274290000Y-28817561D01*
X217537864Y-28817561D02*
X223890000Y-28817561D01*
X167137864Y-28817561D02*
X173490000Y-28817561D01*
X116737864Y-28817561D02*
X123090000Y-28817561D01*
X272789264Y-108188258D02*
G75*
G02X275789264Y-108188258I1500000J0D01*
G01*
X222389264Y-108188258D02*
G75*
G02X225389264Y-108188258I1500000J0D01*
G01*
X171989264Y-108188258D02*
G75*
G02X174989264Y-108188258I1500000J0D01*
G01*
X121589264Y-108188258D02*
G75*
G02X124589264Y-108188258I1500000J0D01*
G01*
X71189264Y-108188258D02*
G75*
G02X74189264Y-108188258I1500000J0D01*
G01*
X272789264Y-60788258D02*
G75*
G02X275789264Y-60788258I1500000J0D01*
G01*
X222389264Y-60788258D02*
G75*
G02X225389264Y-60788258I1500000J0D01*
G01*
X171989264Y-60788258D02*
G75*
G02X174989264Y-60788258I1500000J0D01*
G01*
X121589264Y-60788258D02*
G75*
G02X124589264Y-60788258I1500000J0D01*
G01*
X265387161Y-118590361D02*
G75*
G02X265387161Y-115590361I0J1500000D01*
G01*
X214987161Y-118590361D02*
G75*
G02X214987161Y-115590361I0J1500000D01*
G01*
X164587161Y-118590361D02*
G75*
G02X164587161Y-115590361I0J1500000D01*
G01*
X114187161Y-118590361D02*
G75*
G02X114187161Y-115590361I0J1500000D01*
G01*
X63787161Y-118590361D02*
G75*
G02X63787161Y-115590361I0J1500000D01*
G01*
X265387161Y-71190361D02*
G75*
G02X265387161Y-68190361I0J1500000D01*
G01*
X214987161Y-71190361D02*
G75*
G02X214987161Y-68190361I0J1500000D01*
G01*
X164587161Y-71190361D02*
G75*
G02X164587161Y-68190361I0J1500000D01*
G01*
X114187161Y-71190361D02*
G75*
G02X114187161Y-68190361I0J1500000D01*
G01*
X233419264Y-84733665D02*
G75*
G02X230419264Y-84733665I-1500000J0D01*
G01*
X183019264Y-84733665D02*
G75*
G02X180019264Y-84733665I-1500000J0D01*
G01*
X132619264Y-84733665D02*
G75*
G02X129619264Y-84733665I-1500000J0D01*
G01*
X82219264Y-84733665D02*
G75*
G02X79219264Y-84733665I-1500000J0D01*
G01*
X31819264Y-84733665D02*
G75*
G02X28819264Y-84733665I-1500000J0D01*
G01*
X233419264Y-37333665D02*
G75*
G02X230419264Y-37333665I-1500000J0D01*
G01*
X183019264Y-37333665D02*
G75*
G02X180019264Y-37333665I-1500000J0D01*
G01*
X132619264Y-37333665D02*
G75*
G02X129619264Y-37333665I-1500000J0D01*
G01*
X82219264Y-37333665D02*
G75*
G02X79219264Y-37333665I-1500000J0D01*
G01*
X238427561Y-76217561D02*
X231920000Y-76217561D01*
X188027561Y-76217561D02*
X181520000Y-76217561D01*
X137627561Y-76217561D02*
X131120000Y-76217561D01*
X87227561Y-76217561D02*
X80720000Y-76217561D01*
X36827561Y-76217561D02*
X30320000Y-76217561D01*
X238427561Y-28817561D02*
X231920000Y-28817561D01*
X188027561Y-28817561D02*
X181520000Y-28817561D01*
X137627561Y-28817561D02*
X131120000Y-28817561D01*
X87227561Y-28817561D02*
X80720000Y-28817561D01*
X239025315Y-114846411D02*
X234163215Y-109984311D01*
X188625315Y-114846411D02*
X183763215Y-109984311D01*
X138225315Y-114846411D02*
X133363215Y-109984311D01*
X87825315Y-114846411D02*
X82963215Y-109984311D01*
X37425315Y-114846411D02*
X32563215Y-109984311D01*
X239025315Y-67446411D02*
X234163215Y-62584311D01*
X188625315Y-67446411D02*
X183763215Y-62584311D01*
X138225315Y-67446411D02*
X133363215Y-62584311D01*
X87825315Y-67446411D02*
X82963215Y-62584311D01*
X267937864Y-79217560D02*
G75*
G02X270464193Y-80082446I75038J-3902959D01*
G01*
X217537864Y-79217560D02*
G75*
G02X220064193Y-80082446I75038J-3902959D01*
G01*
X167137864Y-79217560D02*
G75*
G02X169664193Y-80082446I75038J-3902959D01*
G01*
X116737864Y-79217560D02*
G75*
G02X119264193Y-80082446I75038J-3902959D01*
G01*
X66337864Y-79217560D02*
G75*
G02X68864193Y-80082446I75038J-3902959D01*
G01*
X267937864Y-31817560D02*
G75*
G02X270464193Y-32682446I75038J-3902959D01*
G01*
X217537864Y-31817560D02*
G75*
G02X220064193Y-32682446I75038J-3902959D01*
G01*
X167137864Y-31817560D02*
G75*
G02X169664193Y-32682446I75038J-3902959D01*
G01*
X116737864Y-31817560D02*
G75*
G02X119264193Y-32682446I75038J-3902959D01*
G01*
X267183215Y-114846411D02*
G75*
G02X265387161Y-115590361I-1796053J1796051D01*
G01*
X216783215Y-114846411D02*
G75*
G02X214987161Y-115590361I-1796053J1796051D01*
G01*
X166383215Y-114846411D02*
G75*
G02X164587161Y-115590361I-1796053J1796051D01*
G01*
X115983215Y-114846411D02*
G75*
G02X114187161Y-115590361I-1796053J1796051D01*
G01*
X65583215Y-114846411D02*
G75*
G02X63787161Y-115590361I-1796053J1796051D01*
G01*
X267183215Y-67446411D02*
G75*
G02X265387161Y-68190361I-1796053J1796051D01*
G01*
X216783215Y-67446411D02*
G75*
G02X214987161Y-68190361I-1796053J1796051D01*
G01*
X166383215Y-67446411D02*
G75*
G02X164587161Y-68190361I-1796053J1796051D01*
G01*
X115983215Y-67446411D02*
G75*
G02X114187161Y-68190361I-1796053J1796051D01*
G01*
X230419264Y-84733665D02*
X230420000Y-77717561D01*
X180019264Y-84733665D02*
X180020000Y-77717561D01*
X129619264Y-84733665D02*
X129620000Y-77717561D01*
X79219264Y-84733665D02*
X79220000Y-77717561D01*
X28819264Y-84733665D02*
X28820000Y-77717561D01*
X230419264Y-37333665D02*
X230420000Y-30317561D01*
X180019264Y-37333665D02*
X180020000Y-30317561D01*
X129619264Y-37333665D02*
X129620000Y-30317561D01*
X79219264Y-37333665D02*
X79220000Y-30317561D01*
X233419265Y-84733665D02*
G75*
G02X238427561Y-79217561I5257589J258090D01*
G01*
X183019265Y-84733665D02*
G75*
G02X188027561Y-79217561I5257589J258090D01*
G01*
X132619265Y-84733665D02*
G75*
G02X137627561Y-79217561I5257589J258090D01*
G01*
X82219265Y-84733665D02*
G75*
G02X87227561Y-79217561I5257589J258090D01*
G01*
X31819265Y-84733665D02*
G75*
G02X36827561Y-79217561I5257589J258090D01*
G01*
X233419265Y-37333665D02*
G75*
G02X238427561Y-31817561I5257589J258090D01*
G01*
X183019265Y-37333665D02*
G75*
G02X188027561Y-31817561I5257589J258090D01*
G01*
X132619265Y-37333665D02*
G75*
G02X137627561Y-31817561I5257589J258090D01*
G01*
X82219265Y-37333665D02*
G75*
G02X87227561Y-31817561I5257589J258090D01*
G01*
X233419266Y-108188258D02*
G75*
G03X234163215Y-109984311I2539998J-2D01*
G01*
X183019266Y-108188258D02*
G75*
G03X183763215Y-109984311I2539998J-2D01*
G01*
X132619266Y-108188258D02*
G75*
G03X133363215Y-109984311I2539998J-2D01*
G01*
X82219266Y-108188258D02*
G75*
G03X82963215Y-109984311I2539998J-2D01*
G01*
X31819266Y-108188258D02*
G75*
G03X32563215Y-109984311I2539998J-2D01*
G01*
X233419266Y-60788258D02*
G75*
G03X234163215Y-62584311I2539998J-2D01*
G01*
X183019266Y-60788258D02*
G75*
G03X183763215Y-62584311I2539998J-2D01*
G01*
X132619266Y-60788258D02*
G75*
G03X133363215Y-62584311I2539998J-2D01*
G01*
X82219266Y-60788258D02*
G75*
G03X82963215Y-62584311I2539998J-2D01*
G01*
X239025315Y-114846412D02*
G75*
G03X240821368Y-115590361I1796051J1796051D01*
G01*
X188625315Y-114846412D02*
G75*
G03X190421368Y-115590361I1796051J1796051D01*
G01*
X138225315Y-114846412D02*
G75*
G03X140021368Y-115590361I1796051J1796051D01*
G01*
X87825315Y-114846412D02*
G75*
G03X89621368Y-115590361I1796051J1796051D01*
G01*
X37425315Y-114846412D02*
G75*
G03X39221368Y-115590361I1796051J1796051D01*
G01*
X239025315Y-67446412D02*
G75*
G03X240821368Y-68190361I1796051J1796051D01*
G01*
X188625315Y-67446412D02*
G75*
G03X190421368Y-68190361I1796051J1796051D01*
G01*
X138225315Y-67446412D02*
G75*
G03X140021368Y-68190361I1796051J1796051D01*
G01*
X87825315Y-67446412D02*
G75*
G03X89621368Y-68190361I1796051J1796051D01*
G01*
X274290000Y-76217561D02*
G75*
G02X275790000Y-77717561I0J-1500000D01*
G01*
X223890000Y-76217561D02*
G75*
G02X225390000Y-77717561I0J-1500000D01*
G01*
X173490000Y-76217561D02*
G75*
G02X174990000Y-77717561I0J-1500000D01*
G01*
X123090000Y-76217561D02*
G75*
G02X124590000Y-77717561I0J-1500000D01*
G01*
X72690000Y-76217561D02*
G75*
G02X74190000Y-77717561I0J-1500000D01*
G01*
X274290000Y-28817561D02*
G75*
G02X275790000Y-30317561I0J-1500000D01*
G01*
X223890000Y-28817561D02*
G75*
G02X225390000Y-30317561I0J-1500000D01*
G01*
X173490000Y-28817561D02*
G75*
G02X174990000Y-30317561I0J-1500000D01*
G01*
X123090000Y-28817561D02*
G75*
G02X124590000Y-30317561I0J-1500000D01*
G01*
X230420000Y-77717561D02*
G75*
G02X231920000Y-76217561I1500000J0D01*
G01*
X180020000Y-77717561D02*
G75*
G02X181520000Y-76217561I1500000J0D01*
G01*
X129620000Y-77717561D02*
G75*
G02X131120000Y-76217561I1500000J0D01*
G01*
X79220000Y-77717561D02*
G75*
G02X80720000Y-76217561I1500000J0D01*
G01*
X28820000Y-77717561D02*
G75*
G02X30320000Y-76217561I1500000J0D01*
G01*
X230420000Y-30317561D02*
G75*
G02X231920000Y-28817561I1500000J0D01*
G01*
X180020000Y-30317561D02*
G75*
G02X181520000Y-28817561I1500000J0D01*
G01*
X129620000Y-30317561D02*
G75*
G02X131120000Y-28817561I1500000J0D01*
G01*
X79220000Y-30317561D02*
G75*
G02X80720000Y-28817561I1500000J0D01*
G01*
X240821368Y-115590361D02*
G75*
G02X240821368Y-118590361I0J-1500000D01*
G01*
X190421368Y-115590361D02*
G75*
G02X190421368Y-118590361I0J-1500000D01*
G01*
X140021368Y-115590361D02*
G75*
G02X140021368Y-118590361I0J-1500000D01*
G01*
X89621368Y-115590361D02*
G75*
G02X89621368Y-118590361I0J-1500000D01*
G01*
X39221368Y-115590361D02*
G75*
G02X39221368Y-118590361I0J-1500000D01*
G01*
X240821368Y-68190361D02*
G75*
G02X240821368Y-71190361I0J-1500000D01*
G01*
X190421368Y-68190361D02*
G75*
G02X190421368Y-71190361I0J-1500000D01*
G01*
X140021368Y-68190361D02*
G75*
G02X140021368Y-71190361I0J-1500000D01*
G01*
X89621368Y-68190361D02*
G75*
G02X89621368Y-71190361I0J-1500000D01*
G01*
X231920000Y-118590000D02*
G75*
G02X230420000Y-117090000I0J1500000D01*
G01*
X181520000Y-118590000D02*
G75*
G02X180020000Y-117090000I0J1500000D01*
G01*
X131120000Y-118590000D02*
G75*
G02X129620000Y-117090000I0J1500000D01*
G01*
X80720000Y-118590000D02*
G75*
G02X79220000Y-117090000I0J1500000D01*
G01*
X30320000Y-118590000D02*
G75*
G02X28820000Y-117090000I0J1500000D01*
G01*
X231920000Y-71190000D02*
G75*
G02X230420000Y-69690000I0J1500000D01*
G01*
X181520000Y-71190000D02*
G75*
G02X180020000Y-69690000I0J1500000D01*
G01*
X131120000Y-71190000D02*
G75*
G02X129620000Y-69690000I0J1500000D01*
G01*
X80720000Y-71190000D02*
G75*
G02X79220000Y-69690000I0J1500000D01*
G01*
X272789264Y-108188258D02*
G75*
G02X272045315Y-109984311I-2539999J-2D01*
G01*
X222389264Y-108188258D02*
G75*
G02X221645315Y-109984311I-2539999J-2D01*
G01*
X171989264Y-108188258D02*
G75*
G02X171245315Y-109984311I-2539999J-2D01*
G01*
X121589264Y-108188258D02*
G75*
G02X120845315Y-109984311I-2539999J-2D01*
G01*
X71189264Y-108188258D02*
G75*
G02X70445315Y-109984311I-2539999J-2D01*
G01*
X272789264Y-60788258D02*
G75*
G02X272045315Y-62584311I-2539999J-2D01*
G01*
X222389264Y-60788258D02*
G75*
G02X221645315Y-62584311I-2539999J-2D01*
G01*
X171989264Y-60788258D02*
G75*
G02X171245315Y-62584311I-2539999J-2D01*
G01*
X121589264Y-60788258D02*
G75*
G02X120845315Y-62584311I-2539999J-2D01*
G01*
X272039433Y-81647418D02*
X270464193Y-80082446D01*
X221639433Y-81647418D02*
X220064193Y-80082446D01*
X171239433Y-81647418D02*
X169664193Y-80082446D01*
X120839433Y-81647418D02*
X119264193Y-80082446D01*
X70439433Y-81647418D02*
X68864193Y-80082446D01*
X272039433Y-34247418D02*
X270464193Y-32682446D01*
X221639433Y-34247418D02*
X220064193Y-32682446D01*
X171239433Y-34247418D02*
X169664193Y-32682446D01*
X120839433Y-34247418D02*
X119264193Y-32682446D01*
X240821368Y-118590361D02*
X231920000Y-118590000D01*
X190421368Y-118590361D02*
X181520000Y-118590000D01*
X140021368Y-118590361D02*
X131120000Y-118590000D01*
X89621368Y-118590361D02*
X80720000Y-118590000D01*
X39221368Y-118590361D02*
X30320000Y-118590000D01*
X240821368Y-71190361D02*
X231920000Y-71190000D01*
X190421368Y-71190361D02*
X181520000Y-71190000D01*
X140021368Y-71190361D02*
X131120000Y-71190000D01*
X89621368Y-71190361D02*
X80720000Y-71190000D01*
X230419266Y-108188258D02*
G75*
G02X233419266Y-108188258I1500000J0D01*
G01*
X180019266Y-108188258D02*
G75*
G02X183019266Y-108188258I1500000J0D01*
G01*
X129619266Y-108188258D02*
G75*
G02X132619266Y-108188258I1500000J0D01*
G01*
X79219266Y-108188258D02*
G75*
G02X82219266Y-108188258I1500000J0D01*
G01*
X28819266Y-108188258D02*
G75*
G02X31819266Y-108188258I1500000J0D01*
G01*
X230419266Y-60788258D02*
G75*
G02X233419266Y-60788258I1500000J0D01*
G01*
X180019266Y-60788258D02*
G75*
G02X183019266Y-60788258I1500000J0D01*
G01*
X129619266Y-60788258D02*
G75*
G02X132619266Y-60788258I1500000J0D01*
G01*
X79219266Y-60788258D02*
G75*
G02X82219266Y-60788258I1500000J0D01*
G01*
X272039432Y-81647418D02*
G75*
G02X272789265Y-83449333I-1790168J-1801916D01*
G01*
X221639432Y-81647418D02*
G75*
G02X222389265Y-83449333I-1790168J-1801916D01*
G01*
X171239432Y-81647418D02*
G75*
G02X171989265Y-83449333I-1790168J-1801916D01*
G01*
X120839432Y-81647418D02*
G75*
G02X121589265Y-83449333I-1790168J-1801916D01*
G01*
X70439432Y-81647418D02*
G75*
G02X71189265Y-83449333I-1790168J-1801916D01*
G01*
X272039432Y-34247418D02*
G75*
G02X272789265Y-36049333I-1790168J-1801916D01*
G01*
X221639432Y-34247418D02*
G75*
G02X222389265Y-36049333I-1790168J-1801916D01*
G01*
X171239432Y-34247418D02*
G75*
G02X171989265Y-36049333I-1790168J-1801916D01*
G01*
X120839432Y-34247418D02*
G75*
G02X121589265Y-36049333I-1790168J-1801916D01*
G01*
X267183215Y-114846411D02*
X272045315Y-109984311D01*
X216783215Y-114846411D02*
X221645315Y-109984311D01*
X166383215Y-114846411D02*
X171245315Y-109984311D01*
X115983215Y-114846411D02*
X120845315Y-109984311D01*
X65583215Y-114846411D02*
X70445315Y-109984311D01*
X267183215Y-67446411D02*
X272045315Y-62584311D01*
X216783215Y-67446411D02*
X221645315Y-62584311D01*
X166383215Y-67446411D02*
X171245315Y-62584311D01*
X115983215Y-67446411D02*
X120845315Y-62584311D01*
X275789264Y-108188258D02*
X275790000Y-117090000D01*
X225389264Y-108188258D02*
X225390000Y-117090000D01*
X174989264Y-108188258D02*
X174990000Y-117090000D01*
X124589264Y-108188258D02*
X124590000Y-117090000D01*
X74189264Y-108188258D02*
X74190000Y-117090000D01*
X275789264Y-60788258D02*
X275790000Y-69690000D01*
X225389264Y-60788258D02*
X225390000Y-69690000D01*
X174989264Y-60788258D02*
X174990000Y-69690000D01*
X124589264Y-60788258D02*
X124590000Y-69690000D01*
X275790000Y-117090000D02*
G75*
G02X274290000Y-118590000I-1500000J0D01*
G01*
X225390000Y-117090000D02*
G75*
G02X223890000Y-118590000I-1500000J0D01*
G01*
X174990000Y-117090000D02*
G75*
G02X173490000Y-118590000I-1500000J0D01*
G01*
X124590000Y-117090000D02*
G75*
G02X123090000Y-118590000I-1500000J0D01*
G01*
X74190000Y-117090000D02*
G75*
G02X72690000Y-118590000I-1500000J0D01*
G01*
X275790000Y-69690000D02*
G75*
G02X274290000Y-71190000I-1500000J0D01*
G01*
X225390000Y-69690000D02*
G75*
G02X223890000Y-71190000I-1500000J0D01*
G01*
X174990000Y-69690000D02*
G75*
G02X173490000Y-71190000I-1500000J0D01*
G01*
X124590000Y-69690000D02*
G75*
G02X123090000Y-71190000I-1500000J0D01*
G01*
X267937864Y-79217561D02*
G75*
G02X267937864Y-76217561I0J1500000D01*
G01*
X217537864Y-79217561D02*
G75*
G02X217537864Y-76217561I0J1500000D01*
G01*
X167137864Y-79217561D02*
G75*
G02X167137864Y-76217561I0J1500000D01*
G01*
X116737864Y-79217561D02*
G75*
G02X116737864Y-76217561I0J1500000D01*
G01*
X66337864Y-79217561D02*
G75*
G02X66337864Y-76217561I0J1500000D01*
G01*
X267937864Y-31817561D02*
G75*
G02X267937864Y-28817561I0J1500000D01*
G01*
X217537864Y-31817561D02*
G75*
G02X217537864Y-28817561I0J1500000D01*
G01*
X167137864Y-31817561D02*
G75*
G02X167137864Y-28817561I0J1500000D01*
G01*
X116737864Y-31817561D02*
G75*
G02X116737864Y-28817561I0J1500000D01*
G01*
X238427561Y-76217561D02*
G75*
G02X238427561Y-79217561I0J-1500000D01*
G01*
X188027561Y-76217561D02*
G75*
G02X188027561Y-79217561I0J-1500000D01*
G01*
X137627561Y-76217561D02*
G75*
G02X137627561Y-79217561I0J-1500000D01*
G01*
X87227561Y-76217561D02*
G75*
G02X87227561Y-79217561I0J-1500000D01*
G01*
X36827561Y-76217561D02*
G75*
G02X36827561Y-79217561I0J-1500000D01*
G01*
X238427561Y-28817561D02*
G75*
G02X238427561Y-31817561I0J-1500000D01*
G01*
X188027561Y-28817561D02*
G75*
G02X188027561Y-31817561I0J-1500000D01*
G01*
X137627561Y-28817561D02*
G75*
G02X137627561Y-31817561I0J-1500000D01*
G01*
X87227561Y-28817561D02*
G75*
G02X87227561Y-31817561I0J-1500000D01*
G01*
X23820000Y-23810000D02*
X280800000Y-23810000D01*
X66337864Y-28817561D02*
X72690000Y-28817561D01*
X74189265Y-36049333D02*
X74190000Y-30317561D01*
X72690000Y-28817561D02*
G75*
G02X74190000Y-30317561I0J-1500000D01*
G01*
X74189265Y-36049333D02*
G75*
G02X71189265Y-36049333I-1500000J0D01*
G01*
X66337864Y-31817561D02*
G75*
G02X66337864Y-28817561I0J1500000D01*
G01*
X28820000Y-30317561D02*
G75*
G02X30320000Y-28817561I1500000J0D01*
G01*
X28819264Y-37333665D02*
X28820000Y-30317561D01*
X36827561Y-28817561D02*
X30320000Y-28817561D01*
X36827561Y-28817561D02*
G75*
G02X36827561Y-31817561I0J-1500000D01*
G01*
X31819264Y-37333665D02*
G75*
G02X28819264Y-37333665I-1500000J0D01*
G01*
X74190000Y-69690000D02*
G75*
G02X72690000Y-71190000I-1500000J0D01*
G01*
X74189264Y-60788258D02*
X74190000Y-69690000D01*
X63787161Y-71190361D02*
X72690000Y-71190000D01*
X71189264Y-60788258D02*
G75*
G02X74189264Y-60788258I1500000J0D01*
G01*
X63787161Y-71190361D02*
G75*
G02X63787161Y-68190361I0J1500000D01*
G01*
X30320000Y-71190000D02*
G75*
G02X28820000Y-69690000I0J1500000D01*
G01*
X39221368Y-71190361D02*
X30320000Y-71190000D01*
X28819266Y-60788258D02*
X28820000Y-69690000D01*
X39221368Y-68190361D02*
G75*
G02X39221368Y-71190361I0J-1500000D01*
G01*
X28819266Y-60788258D02*
G75*
G02X31819266Y-60788258I1500000J0D01*
G01*
X23820000Y-218400000D02*
X280800000Y-218400000D01*
X23820000Y-23810000D02*
X23820000Y-218400000D01*
X65583215Y-67446411D02*
G75*
G02X63787161Y-68190361I-1796053J1796051D01*
G01*
X65583215Y-67446411D02*
X70445315Y-62584311D01*
X71189264Y-60788258D02*
G75*
G02X70445315Y-62584311I-2539999J-2D01*
G01*
X70439432Y-34247418D02*
G75*
G02X71189265Y-36049333I-1790168J-1801916D01*
G01*
X70439433Y-34247418D02*
X68864193Y-32682446D01*
X66337864Y-31817560D02*
G75*
G02X68864193Y-32682446I75038J-3902959D01*
G01*
X31819265Y-37333665D02*
G75*
G02X36827561Y-31817561I5257589J258090D01*
G01*
X37425315Y-67446412D02*
G75*
G03X39221368Y-68190361I1796051J1796051D01*
G01*
X37425315Y-67446411D02*
X32563215Y-62584311D01*
X31819266Y-60788258D02*
G75*
G03X32563215Y-62584311I2539998J-2D01*
G01*
M02*
